<svg xmlns="http://www.w3.org/2000/svg" xmlns:xlink="http://www.w3.org/1999/xlink" width="570" zoomAndPan="magnify" viewBox="0 0 427.5 244.499993" height="326" preserveAspectRatio="xMidYMid meet" version="1.0"><defs><g/><clipPath id="5325002932"><path d="M 26 90.089844 L 66 90.089844 L 66 109 L 26 109 Z M 26 90.089844 " clip-rule="nonzero"/></clipPath><clipPath id="9df4841217"><path d="M 10 143 L 34 143 L 34 153.710938 L 10 153.710938 Z M 10 143 " clip-rule="nonzero"/></clipPath><clipPath id="da53d0bf69"><path d="M 67 112 L 71.292969 112 L 71.292969 119 L 67 119 Z M 67 112 " clip-rule="nonzero"/></clipPath><clipPath id="e68d18d57e"><path d="M 0.1875 109 L 67 109 L 67 142 L 0.1875 142 Z M 0.1875 109 " clip-rule="nonzero"/></clipPath></defs><path fill="#fffefd" d="M 20.351562 144.273438 C 20.410156 144.273438 20.464844 144.257812 20.515625 144.222656 C 20.636719 144.132812 20.667969 143.960938 20.578125 143.835938 L 19.984375 143.007812 L 19.449219 143.007812 C 19.421875 143.089844 19.429688 143.179688 19.480469 143.253906 L 20.125 144.160156 C 20.179688 144.234375 20.265625 144.273438 20.351562 144.273438 Z M 20.351562 144.273438 " fill-opacity="1" fill-rule="nonzero"/><path fill="#fffefd" d="M 22.289062 146.984375 C 22.34375 146.984375 22.398438 146.964844 22.449219 146.929688 C 22.574219 146.84375 22.601562 146.667969 22.511719 146.542969 L 21.867188 145.640625 C 21.777344 145.515625 21.605469 145.488281 21.480469 145.578125 C 21.355469 145.664062 21.328125 145.839844 21.417969 145.964844 L 22.0625 146.867188 C 22.117188 146.941406 22.199219 146.984375 22.289062 146.984375 Z M 22.289062 146.984375 " fill-opacity="1" fill-rule="nonzero"/><path fill="#fffefd" d="M 54.925781 105.210938 C 54.800781 105.300781 54.769531 105.472656 54.859375 105.597656 L 55.503906 106.5 C 55.558594 106.574219 55.644531 106.617188 55.730469 106.617188 C 55.785156 106.617188 55.84375 106.597656 55.890625 106.566406 C 56.015625 106.476562 56.046875 106.300781 55.957031 106.175781 L 55.3125 105.273438 C 55.222656 105.152344 55.050781 105.121094 54.925781 105.210938 Z M 54.925781 105.210938 " fill-opacity="1" fill-rule="nonzero"/><path fill="#fffefd" d="M 52.988281 102.503906 C 52.867188 102.589844 52.835938 102.765625 52.925781 102.890625 L 53.570312 103.792969 C 53.625 103.867188 53.710938 103.90625 53.796875 103.90625 C 53.851562 103.90625 53.910156 103.890625 53.957031 103.855469 C 54.082031 103.765625 54.109375 103.59375 54.023438 103.46875 L 53.375 102.566406 C 53.289062 102.441406 53.113281 102.414062 52.988281 102.503906 Z M 52.988281 102.503906 " fill-opacity="1" fill-rule="nonzero"/><path fill="#fffefd" d="M 56.859375 107.917969 C 56.734375 108.007812 56.707031 108.179688 56.792969 108.304688 L 57.015625 108.617188 L 57.699219 108.617188 L 57.246094 107.984375 C 57.15625 107.859375 56.984375 107.832031 56.859375 107.917969 Z M 56.859375 107.917969 " fill-opacity="1" fill-rule="nonzero"/><path fill="#fffefd" d="M 51.054688 99.792969 C 50.929688 99.882812 50.902344 100.054688 50.992188 100.179688 L 51.636719 101.082031 C 51.691406 101.160156 51.773438 101.199219 51.863281 101.199219 C 51.917969 101.199219 51.972656 101.183594 52.023438 101.148438 C 52.148438 101.058594 52.175781 100.886719 52.085938 100.761719 L 51.441406 99.859375 C 51.355469 99.734375 51.179688 99.707031 51.054688 99.792969 Z M 51.054688 99.792969 " fill-opacity="1" fill-rule="nonzero"/><path fill="#fffefd" d="M 49.121094 97.085938 C 48.996094 97.175781 48.96875 97.347656 49.054688 97.472656 L 49.703125 98.375 C 49.753906 98.453125 49.839844 98.492188 49.925781 98.492188 C 49.984375 98.492188 50.039062 98.476562 50.089844 98.441406 C 50.210938 98.351562 50.242188 98.175781 50.152344 98.050781 L 49.507812 97.148438 C 49.417969 97.027344 49.246094 96.996094 49.121094 97.085938 Z M 49.121094 97.085938 " fill-opacity="1" fill-rule="nonzero"/><path fill="#fffefd" d="M 67.898438 111.390625 L 67.898438 111.617188 L 68.164062 111.425781 C 68.414062 111.246094 68.472656 110.902344 68.292969 110.652344 L 66.664062 108.371094 C 66.578125 108.25 66.445312 108.167969 66.300781 108.144531 C 66.15625 108.121094 66.007812 108.15625 65.886719 108.242188 L 65.335938 108.636719 C 66.765625 108.746094 67.898438 109.933594 67.898438 111.390625 Z M 67.898438 111.390625 " fill-opacity="1" fill-rule="nonzero"/><g clip-path="url(#5325002932)"><path fill="#fffefd" d="M 47.445312 95.214844 L 47.765625 95.667969 C 47.820312 95.742188 47.90625 95.785156 47.992188 95.785156 C 48.046875 95.785156 48.105469 95.765625 48.152344 95.730469 C 48.277344 95.644531 48.308594 95.46875 48.21875 95.34375 L 47.894531 94.894531 L 52.59375 91.523438 C 52.832031 91.351562 53.1875 91.414062 53.355469 91.648438 L 54.023438 92.585938 L 52.609375 93.601562 C 52.359375 93.777344 52.304688 94.125 52.480469 94.371094 L 54.113281 96.65625 C 54.195312 96.773438 54.328125 96.855469 54.472656 96.878906 C 54.617188 96.902344 54.765625 96.871094 54.886719 96.785156 L 56.300781 95.769531 L 57.285156 97.148438 L 55.871094 98.164062 C 55.621094 98.34375 55.5625 98.691406 55.742188 98.9375 L 57.371094 101.222656 C 57.457031 101.339844 57.585938 101.421875 57.734375 101.445312 C 57.878906 101.46875 58.027344 101.433594 58.148438 101.347656 L 59.558594 100.335938 L 60.546875 101.714844 L 59.132812 102.730469 C 58.882812 102.910156 58.824219 103.253906 59.003906 103.503906 L 60.632812 105.785156 C 60.71875 105.90625 60.847656 105.988281 60.996094 106.011719 C 61.140625 106.035156 61.289062 106 61.40625 105.914062 L 62.820312 104.902344 L 63.808594 106.28125 L 62.390625 107.296875 C 62.144531 107.472656 62.085938 107.820312 62.265625 108.070312 L 62.65625 108.617188 L 64.019531 108.617188 L 63.488281 107.875 L 64.902344 106.859375 C 65.152344 106.683594 65.210938 106.335938 65.03125 106.085938 L 63.402344 103.804688 C 63.316406 103.683594 63.1875 103.605469 63.039062 103.578125 C 62.894531 103.554688 62.746094 103.589844 62.625 103.675781 L 61.214844 104.691406 L 60.226562 103.308594 L 61.644531 102.292969 C 61.890625 102.117188 61.949219 101.769531 61.769531 101.523438 L 60.140625 99.238281 C 60.054688 99.121094 59.925781 99.039062 59.78125 99.015625 C 59.632812 98.992188 59.484375 99.023438 59.367188 99.109375 L 57.953125 100.125 L 56.964844 98.746094 L 58.382812 97.730469 C 58.628906 97.550781 58.6875 97.203125 58.507812 96.957031 L 56.878906 94.671875 C 56.792969 94.554688 56.664062 94.472656 56.519531 94.449219 C 56.375 94.425781 56.222656 94.457031 56.105469 94.542969 L 54.691406 95.558594 L 53.707031 94.179688 L 55.121094 93.164062 C 55.371094 92.984375 55.425781 92.640625 55.25 92.390625 L 54.257812 91.003906 C 53.746094 90.289062 52.664062 90.105469 51.949219 90.621094 L 26.855469 108.617188 L 28.761719 108.617188 Z M 47.445312 95.214844 " fill-opacity="1" fill-rule="nonzero"/></g><g clip-path="url(#9df4841217)"><path fill="#fffefd" d="M 24.011719 148.640625 L 23.800781 148.347656 C 23.714844 148.226562 23.539062 148.195312 23.414062 148.285156 C 23.289062 148.375 23.261719 148.546875 23.351562 148.671875 L 23.558594 148.964844 L 18.859375 152.332031 C 18.621094 152.503906 18.269531 152.445312 18.097656 152.207031 L 17.425781 151.265625 L 18.839844 150.25 C 19.089844 150.070312 19.148438 149.726562 18.96875 149.476562 L 17.339844 147.195312 C 17.253906 147.074219 17.121094 146.992188 16.976562 146.96875 C 16.832031 146.945312 16.683594 146.980469 16.5625 147.066406 L 15.152344 148.078125 L 14.164062 146.699219 L 15.578125 145.683594 C 15.828125 145.507812 15.886719 145.160156 15.707031 144.910156 L 14.347656 143.007812 L 12.597656 143.007812 L 11.890625 143.515625 L 11.527344 143.007812 L 10.164062 143.007812 L 11.308594 144.609375 C 11.394531 144.730469 11.523438 144.8125 11.671875 144.835938 C 11.816406 144.859375 11.964844 144.824219 12.085938 144.738281 L 13.496094 143.726562 L 14.484375 145.105469 L 13.070312 146.121094 C 12.820312 146.300781 12.761719 146.644531 12.941406 146.894531 L 14.570312 149.175781 C 14.65625 149.296875 14.785156 149.378906 14.929688 149.402344 C 15.078125 149.425781 15.226562 149.390625 15.34375 149.304688 L 16.757812 148.292969 L 17.746094 149.671875 L 16.328125 150.6875 C 16.082031 150.863281 16.023438 151.210938 16.203125 151.460938 L 17.195312 152.851562 C 17.507812 153.285156 18.011719 153.546875 18.542969 153.546875 C 18.890625 153.546875 19.222656 153.4375 19.507812 153.234375 L 33.769531 143.007812 L 31.867188 143.007812 Z M 24.011719 148.640625 " fill-opacity="1" fill-rule="nonzero"/></g><g clip-path="url(#da53d0bf69)"><path fill="#fffefd" d="M 70.917969 114.328125 L 69.921875 112.933594 C 69.835938 112.816406 69.707031 112.734375 69.5625 112.710938 C 69.414062 112.6875 69.269531 112.71875 69.148438 112.804688 L 67.734375 113.820312 L 67.730469 113.8125 C 67.59375 114.097656 67.386719 114.347656 67.117188 114.515625 C 67.359375 114.667969 67.558594 114.882812 67.695312 115.136719 C 67.78125 115.121094 67.859375 115.097656 67.929688 115.046875 L 69.34375 114.03125 L 70.015625 114.972656 C 70.191406 115.21875 70.136719 115.5625 69.890625 115.738281 L 67.898438 117.164062 L 67.898438 118.53125 L 70.535156 116.640625 C 71.277344 116.109375 71.449219 115.070312 70.917969 114.328125 Z M 70.917969 114.328125 " fill-opacity="1" fill-rule="nonzero"/></g><g clip-path="url(#e68d18d57e)"><path fill="#fffefd" d="M 65.125 109.726562 L 1.890625 109.726562 C 0.972656 109.726562 0.226562 110.472656 0.226562 111.390625 L 0.226562 113.101562 C 0.226562 113.410156 0.476562 113.65625 0.78125 113.65625 L 2.539062 113.65625 L 2.539062 115.371094 L 0.78125 115.371094 C 0.476562 115.371094 0.226562 115.621094 0.226562 115.925781 L 0.226562 118.75 C 0.226562 119.054688 0.476562 119.304688 0.78125 119.304688 L 2.539062 119.304688 L 2.539062 121.015625 L 0.78125 121.015625 C 0.476562 121.015625 0.226562 121.265625 0.226562 121.570312 L 0.226562 124.394531 C 0.226562 124.703125 0.476562 124.949219 0.78125 124.949219 L 2.539062 124.949219 L 2.539062 126.664062 L 0.78125 126.664062 C 0.476562 126.664062 0.226562 126.914062 0.226562 127.21875 L 0.226562 130.042969 C 0.226562 130.347656 0.476562 130.597656 0.78125 130.597656 L 2.539062 130.597656 L 2.539062 132.308594 L 0.78125 132.308594 C 0.476562 132.308594 0.226562 132.558594 0.226562 132.863281 L 0.226562 135.6875 C 0.226562 135.992188 0.476562 136.242188 0.78125 136.242188 L 2.539062 136.242188 L 2.539062 137.957031 L 0.78125 137.957031 C 0.476562 137.957031 0.226562 138.203125 0.226562 138.511719 L 0.226562 140.234375 C 0.226562 141.152344 0.972656 141.898438 1.890625 141.898438 L 65.125 141.898438 C 66.042969 141.898438 66.789062 141.152344 66.789062 140.234375 L 66.789062 138.511719 C 66.789062 138.203125 66.542969 137.957031 66.234375 137.957031 L 64.480469 137.957031 L 64.480469 136.242188 L 66.234375 136.242188 C 66.542969 136.242188 66.789062 135.992188 66.789062 135.6875 L 66.789062 132.863281 C 66.789062 132.558594 66.542969 132.308594 66.234375 132.308594 L 64.480469 132.308594 L 64.480469 130.597656 L 66.234375 130.597656 C 66.542969 130.597656 66.789062 130.347656 66.789062 130.042969 L 66.789062 127.21875 C 66.789062 126.914062 66.542969 126.664062 66.234375 126.664062 L 64.480469 126.664062 L 64.480469 124.949219 L 66.234375 124.949219 C 66.542969 124.949219 66.789062 124.703125 66.789062 124.394531 L 66.789062 121.570312 C 66.789062 121.265625 66.542969 121.015625 66.234375 121.015625 L 64.480469 121.015625 L 64.480469 119.304688 L 66.234375 119.304688 C 66.542969 119.304688 66.789062 119.054688 66.789062 118.75 L 66.789062 115.925781 C 66.789062 115.621094 66.542969 115.371094 66.234375 115.371094 L 64.480469 115.371094 L 64.480469 113.65625 L 66.234375 113.65625 C 66.542969 113.65625 66.789062 113.410156 66.789062 113.101562 L 66.789062 111.390625 C 66.789062 110.472656 66.042969 109.726562 65.125 109.726562 Z M 65.679688 112.546875 L 63.925781 112.546875 C 63.617188 112.546875 63.371094 112.796875 63.371094 113.101562 L 63.371094 115.925781 C 63.371094 116.234375 63.617188 116.480469 63.925781 116.480469 L 65.679688 116.480469 L 65.679688 118.195312 L 63.925781 118.195312 C 63.617188 118.195312 63.371094 118.441406 63.371094 118.75 L 63.371094 121.570312 C 63.371094 121.878906 63.617188 122.125 63.925781 122.125 L 65.679688 122.125 L 65.679688 123.839844 L 63.925781 123.839844 C 63.617188 123.839844 63.371094 124.089844 63.371094 124.394531 L 63.371094 127.21875 C 63.371094 127.523438 63.617188 127.773438 63.925781 127.773438 L 65.679688 127.773438 L 65.679688 129.488281 L 63.925781 129.488281 C 63.617188 129.488281 63.371094 129.734375 63.371094 130.042969 L 63.371094 132.863281 C 63.371094 133.171875 63.617188 133.417969 63.925781 133.417969 L 65.679688 133.417969 L 65.679688 135.132812 L 63.925781 135.132812 C 63.617188 135.132812 63.371094 135.378906 63.371094 135.6875 L 63.371094 138.511719 C 63.371094 138.816406 63.617188 139.066406 63.925781 139.066406 L 65.679688 139.066406 L 65.679688 140.234375 C 65.679688 140.539062 65.433594 140.789062 65.125 140.789062 L 59.300781 140.789062 L 59.300781 140.234375 C 59.300781 140.078125 59.175781 139.957031 59.023438 139.957031 C 58.871094 139.957031 58.746094 140.078125 58.746094 140.234375 L 58.746094 140.789062 L 8.269531 140.789062 L 8.269531 140.234375 C 8.269531 140.078125 8.144531 139.957031 7.992188 139.957031 C 7.839844 139.957031 7.714844 140.078125 7.714844 140.234375 L 7.714844 140.789062 L 1.890625 140.789062 C 1.585938 140.789062 1.335938 140.539062 1.335938 140.234375 L 1.335938 139.066406 L 3.09375 139.066406 C 3.398438 139.066406 3.648438 138.816406 3.648438 138.511719 L 3.648438 135.6875 C 3.648438 135.378906 3.398438 135.132812 3.09375 135.132812 L 1.335938 135.132812 L 1.335938 133.417969 L 3.09375 133.417969 C 3.398438 133.417969 3.648438 133.171875 3.648438 132.863281 L 3.648438 130.042969 C 3.648438 129.734375 3.398438 129.488281 3.09375 129.488281 L 1.335938 129.488281 L 1.335938 127.773438 L 3.09375 127.773438 C 3.398438 127.773438 3.648438 127.523438 3.648438 127.21875 L 3.648438 124.394531 C 3.648438 124.089844 3.398438 123.839844 3.09375 123.839844 L 1.335938 123.839844 L 1.335938 122.125 L 3.09375 122.125 C 3.398438 122.125 3.648438 121.878906 3.648438 121.570312 L 3.648438 118.75 C 3.648438 118.441406 3.398438 118.195312 3.09375 118.195312 L 1.335938 118.195312 L 1.335938 116.480469 L 3.09375 116.480469 C 3.398438 116.480469 3.648438 116.234375 3.648438 115.925781 L 3.648438 113.101562 C 3.648438 112.796875 3.398438 112.546875 3.09375 112.546875 L 1.335938 112.546875 L 1.335938 111.390625 C 1.335938 111.082031 1.585938 110.835938 1.890625 110.835938 L 7.714844 110.835938 L 7.714844 111.390625 C 7.714844 111.542969 7.839844 111.667969 7.992188 111.667969 C 8.144531 111.667969 8.269531 111.542969 8.269531 111.390625 L 8.269531 110.835938 L 58.746094 110.835938 L 58.746094 111.390625 C 58.746094 111.542969 58.871094 111.667969 59.023438 111.667969 C 59.175781 111.667969 59.300781 111.542969 59.300781 111.390625 L 59.300781 110.835938 L 65.125 110.835938 C 65.433594 110.835938 65.679688 111.082031 65.679688 111.390625 Z M 65.679688 112.546875 " fill-opacity="1" fill-rule="nonzero"/></g><path fill="#fffefd" d="M 13.539062 115.273438 C 13.691406 115.273438 13.816406 115.148438 13.816406 114.996094 C 13.816406 114.839844 13.691406 114.71875 13.539062 114.71875 C 13.535156 114.71875 13.535156 114.71875 13.535156 114.71875 C 13.535156 114.71875 13.535156 114.71875 13.53125 114.71875 C 13.53125 114.71875 13.53125 114.71875 13.527344 114.71875 C 13.523438 114.71875 13.523438 114.71875 13.523438 114.71875 C 13.523438 114.71875 13.523438 114.71875 13.519531 114.71875 L 13.515625 114.71875 C 13.515625 114.71875 13.511719 114.71875 13.511719 114.71875 C 13.507812 114.71875 13.507812 114.71875 13.507812 114.71875 L 13.503906 114.71875 C 13.503906 114.71875 13.503906 114.71875 13.5 114.71875 C 13.5 114.71875 13.496094 114.71875 13.496094 114.71875 C 13.496094 114.71875 13.492188 114.71875 13.492188 114.71875 C 13.492188 114.71875 13.492188 114.71875 13.488281 114.71875 C 13.488281 114.71875 13.488281 114.71875 13.484375 114.71875 C 13.484375 114.71875 13.484375 114.71875 13.480469 114.71875 L 13.476562 114.71875 C 13.476562 114.71875 13.476562 114.71875 13.472656 114.71875 C 13.472656 114.71875 13.46875 114.71875 13.46875 114.71875 C 13.464844 114.71875 13.464844 114.71875 13.464844 114.71875 C 13.464844 114.71875 13.460938 114.71875 13.460938 114.71875 C 13.460938 114.71875 13.460938 114.71875 13.457031 114.722656 C 13.457031 114.722656 13.453125 114.722656 13.453125 114.722656 C 13.449219 114.722656 13.449219 114.722656 13.449219 114.722656 C 13.449219 114.722656 13.445312 114.722656 13.445312 114.722656 C 13.441406 114.722656 13.441406 114.722656 13.441406 114.722656 C 13.441406 114.722656 13.4375 114.722656 13.4375 114.722656 C 13.433594 114.722656 13.433594 114.722656 13.433594 114.722656 L 13.429688 114.722656 C 13.425781 114.722656 13.425781 114.722656 13.425781 114.722656 C 13.425781 114.722656 13.421875 114.722656 13.421875 114.722656 C 13.417969 114.722656 13.417969 114.722656 13.417969 114.722656 C 13.417969 114.726562 13.417969 114.726562 13.417969 114.726562 C 13.414062 114.726562 13.414062 114.726562 13.414062 114.726562 C 13.414062 114.726562 13.414062 114.726562 13.410156 114.726562 C 13.410156 114.726562 13.40625 114.726562 13.40625 114.726562 C 13.402344 114.726562 13.402344 114.726562 13.402344 114.726562 L 13.398438 114.726562 C 13.394531 114.726562 13.394531 114.726562 13.394531 114.726562 C 13.394531 114.726562 13.390625 114.726562 13.390625 114.726562 C 13.386719 114.726562 13.386719 114.726562 13.386719 114.726562 C 13.382812 114.726562 13.382812 114.726562 13.382812 114.730469 L 13.378906 114.730469 C 13.378906 114.730469 13.378906 114.730469 13.375 114.730469 C 13.375 114.730469 13.371094 114.730469 13.371094 114.730469 L 13.367188 114.730469 C 13.363281 114.730469 13.363281 114.730469 13.363281 114.730469 C 13.363281 114.730469 13.363281 114.730469 13.359375 114.730469 C 13.359375 114.734375 13.359375 114.734375 13.359375 114.734375 C 13.359375 114.734375 13.355469 114.734375 13.355469 114.734375 C 13.351562 114.734375 13.351562 114.734375 13.351562 114.734375 C 13.347656 114.734375 13.347656 114.734375 13.34375 114.734375 C 13.34375 114.734375 13.34375 114.734375 13.339844 114.734375 C 13.339844 114.734375 13.335938 114.734375 13.335938 114.738281 C 13.332031 114.738281 13.332031 114.738281 13.332031 114.738281 C 13.332031 114.738281 13.332031 114.738281 13.328125 114.738281 L 13.324219 114.738281 C 13.324219 114.738281 13.324219 114.738281 13.320312 114.738281 C 13.320312 114.738281 13.316406 114.738281 13.316406 114.742188 C 13.3125 114.742188 13.3125 114.742188 13.3125 114.742188 C 13.308594 114.742188 13.308594 114.742188 13.308594 114.742188 C 13.304688 114.742188 13.304688 114.742188 13.304688 114.742188 C 13.304688 114.742188 13.304688 114.742188 13.300781 114.742188 C 13.300781 114.742188 13.300781 114.742188 13.300781 114.746094 C 13.300781 114.746094 13.296875 114.746094 13.296875 114.746094 C 13.292969 114.746094 13.292969 114.746094 13.292969 114.746094 C 13.289062 114.746094 13.289062 114.746094 13.289062 114.746094 L 13.28125 114.746094 C 13.28125 114.746094 13.28125 114.746094 13.28125 114.75 C 13.28125 114.75 13.28125 114.75 13.277344 114.75 C 13.277344 114.75 13.273438 114.75 13.273438 114.75 C 13.269531 114.75 13.269531 114.75 13.269531 114.75 L 13.265625 114.75 C 13.265625 114.75 13.265625 114.75 13.265625 114.753906 C 13.261719 114.753906 13.261719 114.753906 13.261719 114.753906 L 13.257812 114.753906 C 13.257812 114.753906 13.257812 114.753906 13.253906 114.753906 C 13.253906 114.753906 13.25 114.757812 13.25 114.757812 C 13.25 114.757812 13.246094 114.757812 13.246094 114.757812 C 13.242188 114.757812 13.242188 114.757812 13.242188 114.757812 C 13.238281 114.757812 13.238281 114.757812 13.238281 114.757812 C 13.238281 114.757812 13.238281 114.761719 13.238281 114.761719 L 13.234375 114.761719 C 13.234375 114.761719 13.234375 114.761719 13.230469 114.761719 C 13.230469 114.761719 13.230469 114.761719 13.226562 114.761719 C 13.226562 114.765625 13.222656 114.765625 13.222656 114.765625 C 13.222656 114.765625 13.21875 114.765625 13.21875 114.765625 C 13.214844 114.765625 13.214844 114.765625 13.214844 114.765625 C 13.210938 114.765625 13.210938 114.765625 13.210938 114.765625 C 13.210938 114.769531 13.210938 114.769531 13.210938 114.769531 C 13.207031 114.769531 13.207031 114.769531 13.207031 114.769531 C 13.207031 114.769531 13.203125 114.769531 13.203125 114.769531 L 13.199219 114.769531 C 13.199219 114.769531 13.199219 114.769531 13.199219 114.773438 C 13.199219 114.773438 13.199219 114.773438 13.195312 114.773438 C 13.195312 114.773438 13.191406 114.773438 13.191406 114.773438 C 13.191406 114.773438 13.1875 114.773438 13.1875 114.773438 C 13.1875 114.773438 13.1875 114.777344 13.1875 114.777344 C 13.183594 114.777344 13.183594 114.777344 13.183594 114.777344 C 13.179688 114.777344 13.179688 114.777344 13.179688 114.777344 C 13.175781 114.777344 13.175781 114.777344 13.175781 114.78125 C 13.171875 114.78125 13.171875 114.78125 13.171875 114.78125 L 13.167969 114.78125 C 13.167969 114.78125 13.167969 114.78125 13.164062 114.785156 C 13.160156 114.785156 13.160156 114.785156 13.160156 114.785156 C 13.160156 114.785156 13.160156 114.785156 13.15625 114.785156 C 13.15625 114.785156 13.15625 114.785156 13.152344 114.789062 C 13.152344 114.789062 13.152344 114.789062 13.148438 114.789062 C 13.148438 114.789062 13.148438 114.789062 13.144531 114.789062 C 13.144531 114.789062 13.144531 114.792969 13.144531 114.792969 C 13.144531 114.792969 13.140625 114.792969 13.140625 114.792969 C 13.140625 114.792969 13.136719 114.792969 13.136719 114.792969 C 13.136719 114.792969 13.132812 114.796875 13.132812 114.796875 C 13.128906 114.796875 13.128906 114.796875 13.128906 114.796875 C 13.128906 114.796875 13.125 114.796875 13.125 114.796875 C 13.125 114.800781 13.125 114.800781 13.125 114.800781 C 13.121094 114.800781 13.121094 114.800781 13.121094 114.800781 C 13.121094 114.800781 13.121094 114.800781 13.117188 114.800781 C 13.113281 114.800781 13.113281 114.804688 13.113281 114.804688 C 13.113281 114.804688 13.113281 114.804688 13.109375 114.804688 L 13.105469 114.804688 C 13.105469 114.808594 13.105469 114.808594 13.105469 114.808594 C 13.105469 114.808594 13.101562 114.808594 13.101562 114.808594 C 13.101562 114.808594 13.097656 114.808594 13.097656 114.808594 C 13.097656 114.8125 13.097656 114.8125 13.097656 114.8125 C 13.097656 114.8125 13.09375 114.8125 13.09375 114.8125 L 13.089844 114.8125 C 13.089844 114.8125 13.089844 114.8125 13.089844 114.816406 L 13.085938 114.816406 C 13.085938 114.816406 13.082031 114.816406 13.082031 114.816406 C 13.082031 114.816406 13.082031 114.816406 13.078125 114.820312 C 13.078125 114.820312 13.074219 114.820312 13.074219 114.820312 C 13.070312 114.820312 13.070312 114.820312 13.070312 114.820312 C 13.070312 114.820312 13.070312 114.820312 13.070312 114.824219 C 13.070312 114.824219 13.066406 114.824219 13.066406 114.824219 C 13.066406 114.824219 13.066406 114.824219 13.0625 114.824219 C 13.0625 114.828125 13.0625 114.828125 13.0625 114.828125 C 13.0625 114.828125 13.0625 114.828125 13.058594 114.828125 C 13.054688 114.828125 13.054688 114.828125 13.054688 114.828125 C 13.054688 114.832031 13.054688 114.832031 13.054688 114.832031 C 13.054688 114.832031 13.054688 114.832031 13.050781 114.832031 L 13.046875 114.832031 C 13.046875 114.835938 13.046875 114.835938 13.046875 114.835938 C 13.042969 114.835938 13.042969 114.835938 13.042969 114.835938 C 13.042969 114.835938 13.042969 114.835938 13.039062 114.835938 C 13.039062 114.835938 13.039062 114.835938 13.039062 114.839844 L 13.035156 114.839844 C 13.035156 114.839844 13.03125 114.839844 13.03125 114.839844 C 13.03125 114.839844 13.03125 114.839844 13.03125 114.84375 C 13.03125 114.84375 13.03125 114.84375 13.027344 114.84375 C 13.023438 114.84375 13.023438 114.84375 13.023438 114.84375 C 13.023438 114.847656 13.023438 114.847656 13.023438 114.847656 L 13.019531 114.847656 C 13.015625 114.847656 13.015625 114.851562 13.015625 114.851562 C 13.015625 114.851562 13.011719 114.851562 13.011719 114.851562 C 13.011719 114.855469 13.007812 114.855469 13.007812 114.855469 C 13.003906 114.855469 13.003906 114.855469 13.003906 114.855469 C 13.003906 114.859375 13.003906 114.859375 13.003906 114.859375 L 12.996094 114.859375 C 12.996094 114.859375 12.996094 114.863281 12.996094 114.863281 C 12.996094 114.863281 12.992188 114.863281 12.992188 114.863281 C 12.992188 114.863281 12.992188 114.863281 12.988281 114.863281 C 12.988281 114.863281 12.988281 114.863281 12.988281 114.867188 C 12.984375 114.867188 12.984375 114.867188 12.984375 114.867188 C 12.984375 114.867188 12.980469 114.867188 12.980469 114.871094 C 12.976562 114.871094 12.976562 114.871094 12.976562 114.871094 C 12.976562 114.871094 12.976562 114.871094 12.976562 114.875 C 12.976562 114.875 12.972656 114.875 12.972656 114.875 L 12.96875 114.875 C 12.96875 114.875 12.96875 114.875 12.96875 114.878906 C 12.96875 114.878906 12.96875 114.878906 12.964844 114.878906 L 12.960938 114.882812 C 12.957031 114.882812 12.957031 114.882812 12.957031 114.886719 C 12.957031 114.886719 12.953125 114.886719 12.953125 114.886719 C 12.953125 114.886719 12.953125 114.886719 12.949219 114.886719 C 12.949219 114.886719 12.949219 114.886719 12.949219 114.890625 L 12.945312 114.890625 C 12.945312 114.890625 12.945312 114.890625 12.945312 114.894531 C 12.941406 114.894531 12.941406 114.894531 12.941406 114.894531 C 12.9375 114.894531 12.9375 114.894531 12.9375 114.894531 C 12.9375 114.894531 12.9375 114.894531 12.9375 114.898438 C 12.933594 114.898438 12.933594 114.898438 12.933594 114.898438 C 12.933594 114.898438 12.933594 114.902344 12.929688 114.902344 C 12.925781 114.902344 12.925781 114.902344 12.925781 114.902344 C 12.925781 114.902344 12.925781 114.902344 12.925781 114.90625 C 12.925781 114.90625 12.921875 114.90625 12.921875 114.90625 C 12.921875 114.90625 12.921875 114.910156 12.921875 114.910156 C 12.917969 114.910156 12.917969 114.910156 12.917969 114.910156 C 12.914062 114.910156 12.914062 114.910156 12.914062 114.910156 C 12.914062 114.910156 12.914062 114.910156 12.914062 114.914062 C 12.914062 114.914062 12.914062 114.914062 12.910156 114.914062 C 12.910156 114.914062 12.910156 114.914062 12.910156 114.917969 L 12.902344 114.917969 C 12.902344 114.917969 12.902344 114.917969 12.902344 114.921875 C 12.902344 114.921875 12.898438 114.921875 12.898438 114.921875 C 12.898438 114.921875 12.898438 114.921875 12.898438 114.925781 C 12.898438 114.925781 12.898438 114.925781 12.894531 114.925781 C 12.894531 114.925781 12.894531 114.925781 12.890625 114.929688 C 12.890625 114.929688 12.886719 114.929688 12.886719 114.929688 C 12.886719 114.929688 12.886719 114.929688 12.886719 114.933594 C 12.886719 114.933594 12.882812 114.933594 12.882812 114.933594 C 12.882812 114.933594 12.882812 114.9375 12.878906 114.9375 C 12.875 114.941406 12.875 114.941406 12.875 114.941406 C 12.871094 114.941406 12.871094 114.941406 12.871094 114.941406 C 12.871094 114.945312 12.871094 114.945312 12.867188 114.945312 C 12.867188 114.945312 12.867188 114.945312 12.867188 114.949219 C 12.863281 114.949219 12.863281 114.949219 12.863281 114.949219 L 12.859375 114.949219 C 12.859375 114.953125 12.859375 114.953125 12.859375 114.953125 C 12.859375 114.953125 12.859375 114.953125 12.855469 114.953125 C 12.855469 114.957031 12.855469 114.957031 12.855469 114.957031 C 12.851562 114.957031 12.851562 114.957031 12.851562 114.957031 C 12.851562 114.957031 12.851562 114.960938 12.851562 114.960938 C 12.847656 114.960938 12.847656 114.960938 12.847656 114.960938 C 12.847656 114.964844 12.84375 114.964844 12.84375 114.964844 C 12.84375 114.964844 12.84375 114.964844 12.839844 114.96875 C 12.835938 114.96875 12.835938 114.96875 12.835938 114.96875 C 12.835938 114.96875 12.835938 114.96875 12.835938 114.972656 C 12.835938 114.972656 12.832031 114.972656 12.832031 114.976562 C 12.828125 114.976562 12.828125 114.980469 12.824219 114.980469 C 12.824219 114.980469 12.820312 114.984375 12.820312 114.984375 C 12.816406 114.988281 12.816406 114.988281 12.8125 114.988281 C 12.734375 115.058594 12.664062 115.140625 12.605469 115.230469 C 12.523438 115.359375 12.5625 115.53125 12.691406 115.613281 C 12.734375 115.640625 12.789062 115.65625 12.839844 115.65625 C 12.929688 115.65625 13.019531 115.613281 13.074219 115.53125 C 13.175781 115.367188 13.351562 115.273438 13.539062 115.273438 Z M 13.539062 115.273438 " fill-opacity="1" fill-rule="nonzero"/><path fill="#fffefd" d="M 45.710938 115.273438 L 46.820312 115.273438 C 46.972656 115.273438 47.097656 115.148438 47.097656 114.996094 C 47.097656 114.839844 46.972656 114.71875 46.820312 114.71875 L 45.710938 114.71875 C 45.558594 114.71875 45.433594 114.839844 45.433594 114.996094 C 45.433594 115.148438 45.558594 115.273438 45.710938 115.273438 Z M 45.710938 115.273438 " fill-opacity="1" fill-rule="nonzero"/><path fill="#fffefd" d="M 14.496094 136.351562 L 13.539062 136.351562 C 13.515625 136.351562 13.488281 136.347656 13.460938 136.34375 C 13.449219 136.34375 13.4375 136.34375 13.421875 136.34375 C 13.289062 136.34375 13.167969 136.441406 13.148438 136.582031 C 13.128906 136.730469 13.234375 136.871094 13.382812 136.894531 C 13.40625 136.898438 13.429688 136.898438 13.453125 136.902344 C 13.453125 136.902344 13.457031 136.902344 13.457031 136.902344 C 13.460938 136.902344 13.460938 136.902344 13.460938 136.902344 C 13.460938 136.902344 13.460938 136.902344 13.464844 136.902344 C 13.46875 136.902344 13.46875 136.902344 13.46875 136.902344 L 13.472656 136.902344 C 13.472656 136.902344 13.476562 136.902344 13.476562 136.902344 C 13.476562 136.902344 13.480469 136.902344 13.480469 136.902344 C 13.480469 136.902344 13.484375 136.902344 13.484375 136.902344 C 13.484375 136.902344 13.484375 136.902344 13.488281 136.902344 C 13.488281 136.902344 13.488281 136.902344 13.492188 136.902344 C 13.492188 136.902344 13.496094 136.902344 13.496094 136.902344 C 13.496094 136.90625 13.5 136.90625 13.5 136.90625 C 13.5 136.90625 13.503906 136.90625 13.503906 136.90625 C 13.507812 136.90625 13.507812 136.90625 13.507812 136.90625 C 13.507812 136.90625 13.507812 136.90625 13.511719 136.90625 C 13.515625 136.90625 13.515625 136.90625 13.515625 136.90625 C 13.515625 136.90625 13.519531 136.90625 13.519531 136.90625 C 13.519531 136.90625 13.523438 136.90625 13.523438 136.90625 C 13.527344 136.90625 13.527344 136.90625 13.527344 136.90625 L 13.53125 136.90625 C 13.535156 136.90625 13.535156 136.90625 13.535156 136.90625 C 13.535156 136.90625 13.535156 136.90625 13.539062 136.90625 L 14.496094 136.90625 C 14.648438 136.90625 14.773438 136.78125 14.773438 136.628906 C 14.773438 136.472656 14.648438 136.351562 14.496094 136.351562 Z M 14.496094 136.351562 " fill-opacity="1" fill-rule="nonzero"/><path fill="#fffefd" d="M 12.707031 120.464844 C 12.554688 120.464844 12.429688 120.589844 12.429688 120.742188 L 12.429688 121.851562 C 12.429688 122.003906 12.554688 122.128906 12.707031 122.128906 C 12.859375 122.128906 12.984375 122.003906 12.984375 121.851562 L 12.984375 120.742188 C 12.984375 120.589844 12.859375 120.464844 12.707031 120.464844 Z M 12.707031 120.464844 " fill-opacity="1" fill-rule="nonzero"/><path fill="#fffefd" d="M 12.707031 117.136719 C 12.554688 117.136719 12.429688 117.261719 12.429688 117.414062 L 12.429688 118.523438 C 12.429688 118.675781 12.554688 118.800781 12.707031 118.800781 C 12.859375 118.800781 12.984375 118.675781 12.984375 118.523438 L 12.984375 117.414062 C 12.984375 117.261719 12.859375 117.136719 12.707031 117.136719 Z M 12.707031 117.136719 " fill-opacity="1" fill-rule="nonzero"/><path fill="#fffefd" d="M 23.800781 114.996094 C 23.800781 114.839844 23.675781 114.71875 23.523438 114.71875 L 22.414062 114.71875 C 22.261719 114.71875 22.136719 114.839844 22.136719 114.996094 C 22.136719 115.148438 22.261719 115.273438 22.414062 115.273438 L 23.523438 115.273438 C 23.675781 115.273438 23.800781 115.148438 23.800781 114.996094 Z M 23.800781 114.996094 " fill-opacity="1" fill-rule="nonzero"/><path fill="#fffefd" d="M 24.480469 136.351562 L 23.371094 136.351562 C 23.214844 136.351562 23.09375 136.472656 23.09375 136.628906 C 23.09375 136.78125 23.214844 136.90625 23.371094 136.90625 L 24.480469 136.90625 C 24.632812 136.90625 24.757812 136.78125 24.757812 136.628906 C 24.757812 136.472656 24.632812 136.351562 24.480469 136.351562 Z M 24.480469 136.351562 " fill-opacity="1" fill-rule="nonzero"/><path fill="#fffefd" d="M 35.726562 115.273438 L 36.835938 115.273438 C 36.988281 115.273438 37.113281 115.148438 37.113281 114.996094 C 37.113281 114.839844 36.988281 114.71875 36.835938 114.71875 L 35.726562 114.71875 C 35.574219 114.71875 35.449219 114.839844 35.449219 114.996094 C 35.449219 115.148438 35.574219 115.273438 35.726562 115.273438 Z M 35.726562 115.273438 " fill-opacity="1" fill-rule="nonzero"/><path fill="#fffefd" d="M 17.824219 136.351562 L 16.714844 136.351562 C 16.558594 136.351562 16.4375 136.472656 16.4375 136.628906 C 16.4375 136.78125 16.558594 136.90625 16.714844 136.90625 L 17.824219 136.90625 C 17.976562 136.90625 18.101562 136.78125 18.101562 136.628906 C 18.101562 136.472656 17.976562 136.351562 17.824219 136.351562 Z M 17.824219 136.351562 " fill-opacity="1" fill-rule="nonzero"/><path fill="#fffefd" d="M 21.152344 136.351562 L 20.042969 136.351562 C 19.886719 136.351562 19.765625 136.472656 19.765625 136.628906 C 19.765625 136.78125 19.886719 136.90625 20.042969 136.90625 L 21.152344 136.90625 C 21.304688 136.90625 21.429688 136.78125 21.429688 136.628906 C 21.429688 136.472656 21.304688 136.351562 21.152344 136.351562 Z M 21.152344 136.351562 " fill-opacity="1" fill-rule="nonzero"/><path fill="#fffefd" d="M 12.707031 123.792969 C 12.554688 123.792969 12.429688 123.917969 12.429688 124.070312 L 12.429688 125.179688 C 12.429688 125.332031 12.554688 125.457031 12.707031 125.457031 C 12.859375 125.457031 12.984375 125.332031 12.984375 125.179688 L 12.984375 124.070312 C 12.984375 123.917969 12.859375 123.792969 12.707031 123.792969 Z M 12.707031 123.792969 " fill-opacity="1" fill-rule="nonzero"/><path fill="#fffefd" d="M 15.757812 115.273438 L 16.867188 115.273438 C 17.019531 115.273438 17.144531 115.148438 17.144531 114.996094 C 17.144531 114.839844 17.019531 114.71875 16.867188 114.71875 L 15.757812 114.71875 C 15.605469 114.71875 15.480469 114.839844 15.480469 114.996094 C 15.480469 115.148438 15.605469 115.273438 15.757812 115.273438 Z M 15.757812 115.273438 " fill-opacity="1" fill-rule="nonzero"/><path fill="#fffefd" d="M 19.085938 115.273438 L 20.195312 115.273438 C 20.347656 115.273438 20.472656 115.148438 20.472656 114.996094 C 20.472656 114.839844 20.347656 114.71875 20.195312 114.71875 L 19.085938 114.71875 C 18.933594 114.71875 18.808594 114.839844 18.808594 114.996094 C 18.808594 115.148438 18.933594 115.273438 19.085938 115.273438 Z M 19.085938 115.273438 " fill-opacity="1" fill-rule="nonzero"/><path fill="#fffefd" d="M 29.070312 115.273438 L 30.179688 115.273438 C 30.332031 115.273438 30.457031 115.148438 30.457031 114.996094 C 30.457031 114.839844 30.332031 114.71875 30.179688 114.71875 L 29.070312 114.71875 C 28.917969 114.71875 28.792969 114.839844 28.792969 114.996094 C 28.792969 115.148438 28.917969 115.273438 29.070312 115.273438 Z M 29.070312 115.273438 " fill-opacity="1" fill-rule="nonzero"/><path fill="#fffefd" d="M 25.742188 115.273438 L 26.851562 115.273438 C 27.003906 115.273438 27.128906 115.148438 27.128906 114.996094 C 27.128906 114.839844 27.003906 114.71875 26.851562 114.71875 L 25.742188 114.71875 C 25.589844 114.71875 25.464844 114.839844 25.464844 114.996094 C 25.464844 115.148438 25.589844 115.273438 25.742188 115.273438 Z M 25.742188 115.273438 " fill-opacity="1" fill-rule="nonzero"/><path fill="#fffefd" d="M 42.382812 115.273438 L 43.492188 115.273438 C 43.644531 115.273438 43.769531 115.148438 43.769531 114.996094 C 43.769531 114.839844 43.644531 114.71875 43.492188 114.71875 L 42.382812 114.71875 C 42.230469 114.71875 42.105469 114.839844 42.105469 114.996094 C 42.105469 115.148438 42.230469 115.273438 42.382812 115.273438 Z M 42.382812 115.273438 " fill-opacity="1" fill-rule="nonzero"/><path fill="#fffefd" d="M 12.707031 133.777344 C 12.554688 133.777344 12.429688 133.902344 12.429688 134.054688 L 12.429688 135.164062 C 12.429688 135.316406 12.554688 135.441406 12.707031 135.441406 C 12.859375 135.441406 12.984375 135.316406 12.984375 135.164062 L 12.984375 134.054688 C 12.984375 133.902344 12.859375 133.777344 12.707031 133.777344 Z M 12.707031 133.777344 " fill-opacity="1" fill-rule="nonzero"/><path fill="#fffefd" d="M 12.707031 127.121094 C 12.554688 127.121094 12.429688 127.246094 12.429688 127.398438 L 12.429688 128.507812 C 12.429688 128.660156 12.554688 128.785156 12.707031 128.785156 C 12.859375 128.785156 12.984375 128.660156 12.984375 128.507812 L 12.984375 127.398438 C 12.984375 127.246094 12.859375 127.121094 12.707031 127.121094 Z M 12.707031 127.121094 " fill-opacity="1" fill-rule="nonzero"/><path fill="#fffefd" d="M 12.707031 130.449219 C 12.554688 130.449219 12.429688 130.574219 12.429688 130.726562 L 12.429688 131.835938 C 12.429688 131.988281 12.554688 132.113281 12.707031 132.113281 C 12.859375 132.113281 12.984375 131.988281 12.984375 131.835938 L 12.984375 130.726562 C 12.984375 130.574219 12.859375 130.449219 12.707031 130.449219 Z M 12.707031 130.449219 " fill-opacity="1" fill-rule="nonzero"/><path fill="#fffefd" d="M 49.039062 115.273438 L 50.148438 115.273438 C 50.300781 115.273438 50.425781 115.148438 50.425781 114.996094 C 50.425781 114.839844 50.300781 114.71875 50.148438 114.71875 L 49.039062 114.71875 C 48.886719 114.71875 48.761719 114.839844 48.761719 114.996094 C 48.761719 115.148438 48.886719 115.273438 49.039062 115.273438 Z M 49.039062 115.273438 " fill-opacity="1" fill-rule="nonzero"/><path fill="#fffefd" d="M 54.308594 132.976562 C 54.15625 132.976562 54.03125 133.101562 54.03125 133.253906 L 54.03125 134.363281 C 54.03125 134.519531 54.15625 134.640625 54.308594 134.640625 C 54.460938 134.640625 54.585938 134.519531 54.585938 134.363281 L 54.585938 133.253906 C 54.585938 133.101562 54.460938 132.976562 54.308594 132.976562 Z M 54.308594 132.976562 " fill-opacity="1" fill-rule="nonzero"/><path fill="#fffefd" d="M 54.308594 129.648438 C 54.15625 129.648438 54.03125 129.773438 54.03125 129.925781 L 54.03125 131.035156 C 54.03125 131.191406 54.15625 131.3125 54.308594 131.3125 C 54.460938 131.3125 54.585938 131.191406 54.585938 131.035156 L 54.585938 129.925781 C 54.585938 129.773438 54.460938 129.648438 54.308594 129.648438 Z M 54.308594 129.648438 " fill-opacity="1" fill-rule="nonzero"/><path fill="#fffefd" d="M 54.109375 136.058594 C 54.03125 136.058594 53.953125 136.09375 53.898438 136.15625 C 53.792969 136.28125 53.636719 136.351562 53.476562 136.351562 L 53.324219 136.351562 C 53.167969 136.351562 53.046875 136.472656 53.046875 136.628906 C 53.046875 136.78125 53.167969 136.90625 53.324219 136.90625 L 53.476562 136.90625 C 53.476562 136.90625 53.480469 136.90625 53.480469 136.90625 C 53.480469 136.90625 53.484375 136.90625 53.484375 136.90625 C 53.484375 136.90625 53.488281 136.90625 53.488281 136.90625 C 53.488281 136.90625 53.488281 136.90625 53.492188 136.90625 C 53.492188 136.90625 53.492188 136.90625 53.496094 136.90625 C 53.496094 136.90625 53.5 136.90625 53.5 136.90625 L 53.503906 136.90625 C 53.503906 136.90625 53.507812 136.90625 53.507812 136.90625 C 53.507812 136.90625 53.507812 136.90625 53.511719 136.90625 C 53.511719 136.90625 53.515625 136.90625 53.515625 136.90625 C 53.515625 136.90625 53.519531 136.90625 53.519531 136.90625 C 53.519531 136.90625 53.519531 136.902344 53.519531 136.902344 C 53.519531 136.902344 53.523438 136.902344 53.523438 136.902344 C 53.523438 136.902344 53.527344 136.902344 53.527344 136.902344 C 53.527344 136.902344 53.527344 136.902344 53.53125 136.902344 C 53.53125 136.902344 53.53125 136.902344 53.535156 136.902344 C 53.535156 136.902344 53.539062 136.902344 53.539062 136.902344 C 53.539062 136.902344 53.542969 136.902344 53.542969 136.902344 L 53.546875 136.902344 C 53.546875 136.902344 53.546875 136.902344 53.550781 136.902344 C 53.550781 136.902344 53.550781 136.902344 53.554688 136.902344 C 53.554688 136.902344 53.554688 136.902344 53.558594 136.902344 C 53.558594 136.902344 53.5625 136.902344 53.5625 136.902344 C 53.5625 136.902344 53.5625 136.902344 53.566406 136.902344 C 53.566406 136.902344 53.570312 136.902344 53.570312 136.902344 C 53.574219 136.902344 53.574219 136.902344 53.574219 136.902344 C 53.574219 136.902344 53.578125 136.902344 53.578125 136.902344 L 53.578125 136.898438 C 53.582031 136.898438 53.582031 136.898438 53.582031 136.898438 L 53.585938 136.898438 C 53.585938 136.898438 53.589844 136.898438 53.589844 136.898438 C 53.589844 136.898438 53.59375 136.898438 53.59375 136.898438 L 53.597656 136.898438 C 53.597656 136.898438 53.601562 136.898438 53.601562 136.898438 C 53.601562 136.898438 53.605469 136.898438 53.605469 136.898438 C 53.609375 136.898438 53.609375 136.898438 53.609375 136.898438 C 53.613281 136.898438 53.613281 136.898438 53.613281 136.898438 C 53.613281 136.894531 53.617188 136.894531 53.617188 136.894531 C 53.617188 136.894531 53.621094 136.894531 53.621094 136.894531 C 53.625 136.894531 53.625 136.894531 53.625 136.894531 C 53.628906 136.894531 53.628906 136.894531 53.628906 136.894531 C 53.632812 136.894531 53.632812 136.894531 53.632812 136.894531 C 53.636719 136.894531 53.636719 136.894531 53.636719 136.894531 C 53.636719 136.894531 53.640625 136.894531 53.640625 136.894531 C 53.640625 136.894531 53.640625 136.894531 53.644531 136.894531 C 53.644531 136.894531 53.644531 136.890625 53.644531 136.890625 C 53.648438 136.890625 53.648438 136.890625 53.648438 136.890625 C 53.648438 136.890625 53.652344 136.890625 53.652344 136.890625 C 53.65625 136.890625 53.65625 136.890625 53.65625 136.890625 C 53.660156 136.890625 53.660156 136.890625 53.660156 136.890625 C 53.660156 136.890625 53.664062 136.890625 53.664062 136.890625 C 53.664062 136.890625 53.664062 136.890625 53.667969 136.890625 C 53.667969 136.890625 53.667969 136.886719 53.667969 136.886719 C 53.667969 136.886719 53.671875 136.886719 53.671875 136.886719 C 53.671875 136.886719 53.675781 136.886719 53.675781 136.886719 C 53.675781 136.886719 53.675781 136.886719 53.679688 136.886719 C 53.679688 136.886719 53.683594 136.886719 53.683594 136.886719 L 53.6875 136.886719 L 53.6875 136.882812 C 53.6875 136.882812 53.691406 136.882812 53.691406 136.882812 C 53.691406 136.882812 53.695312 136.882812 53.695312 136.882812 L 53.699219 136.882812 C 53.699219 136.882812 53.703125 136.882812 53.703125 136.882812 C 53.703125 136.882812 53.703125 136.882812 53.707031 136.882812 C 53.707031 136.882812 53.707031 136.882812 53.707031 136.878906 L 53.710938 136.878906 C 53.710938 136.878906 53.714844 136.878906 53.714844 136.878906 C 53.714844 136.878906 53.714844 136.878906 53.71875 136.878906 L 53.722656 136.878906 C 53.722656 136.875 53.726562 136.875 53.726562 136.875 C 53.730469 136.875 53.734375 136.875 53.734375 136.875 C 53.734375 136.875 53.738281 136.875 53.738281 136.875 C 53.738281 136.875 53.738281 136.875 53.742188 136.875 C 53.742188 136.871094 53.742188 136.871094 53.742188 136.871094 L 53.746094 136.871094 C 53.75 136.871094 53.75 136.871094 53.753906 136.871094 C 53.753906 136.871094 53.757812 136.871094 53.757812 136.871094 C 53.757812 136.867188 53.757812 136.867188 53.757812 136.867188 C 53.757812 136.867188 53.761719 136.867188 53.761719 136.867188 C 53.761719 136.867188 53.761719 136.867188 53.765625 136.867188 C 53.765625 136.867188 53.769531 136.867188 53.773438 136.863281 L 53.777344 136.863281 C 53.777344 136.863281 53.78125 136.863281 53.78125 136.863281 C 53.785156 136.863281 53.789062 136.859375 53.792969 136.859375 C 53.792969 136.859375 53.792969 136.859375 53.796875 136.859375 C 53.800781 136.859375 53.800781 136.859375 53.800781 136.855469 C 53.804688 136.855469 53.808594 136.855469 53.8125 136.855469 C 53.8125 136.851562 53.8125 136.851562 53.8125 136.851562 L 53.816406 136.851562 C 53.824219 136.851562 53.828125 136.847656 53.832031 136.847656 C 53.839844 136.84375 53.84375 136.84375 53.851562 136.839844 C 54.035156 136.773438 54.195312 136.660156 54.320312 136.515625 C 54.417969 136.402344 54.40625 136.226562 54.289062 136.128906 C 54.234375 136.082031 54.171875 136.058594 54.109375 136.058594 Z M 54.109375 136.058594 " fill-opacity="1" fill-rule="nonzero"/><path fill="#fffefd" d="M 53.628906 115.292969 C 53.65625 115.300781 53.679688 115.304688 53.707031 115.304688 C 53.828125 115.304688 53.9375 115.226562 53.972656 115.105469 C 54.015625 114.957031 53.929688 114.804688 53.785156 114.761719 C 53.765625 114.753906 53.742188 114.75 53.722656 114.746094 L 53.71875 114.746094 C 53.71875 114.746094 53.71875 114.746094 53.714844 114.742188 C 53.710938 114.742188 53.710938 114.742188 53.710938 114.742188 C 53.710938 114.742188 53.707031 114.742188 53.707031 114.742188 C 53.703125 114.742188 53.703125 114.742188 53.703125 114.742188 C 53.703125 114.742188 53.703125 114.742188 53.699219 114.742188 C 53.699219 114.742188 53.699219 114.738281 53.699219 114.738281 C 53.695312 114.738281 53.695312 114.738281 53.695312 114.738281 L 53.691406 114.738281 C 53.691406 114.738281 53.691406 114.738281 53.6875 114.738281 C 53.683594 114.738281 53.683594 114.738281 53.683594 114.738281 L 53.679688 114.738281 C 53.679688 114.738281 53.679688 114.734375 53.679688 114.734375 C 53.679688 114.734375 53.675781 114.734375 53.675781 114.734375 C 53.671875 114.734375 53.671875 114.734375 53.671875 114.734375 C 53.671875 114.734375 53.667969 114.734375 53.667969 114.734375 C 53.664062 114.734375 53.664062 114.734375 53.664062 114.734375 C 53.660156 114.734375 53.660156 114.734375 53.660156 114.734375 C 53.660156 114.734375 53.65625 114.730469 53.65625 114.730469 C 53.652344 114.730469 53.652344 114.730469 53.648438 114.730469 C 53.648438 114.730469 53.644531 114.730469 53.644531 114.730469 C 53.640625 114.730469 53.640625 114.730469 53.636719 114.730469 C 53.632812 114.726562 53.628906 114.726562 53.625 114.726562 C 53.621094 114.726562 53.617188 114.726562 53.613281 114.726562 C 53.601562 114.726562 53.589844 114.722656 53.582031 114.722656 C 53.578125 114.722656 53.578125 114.722656 53.574219 114.722656 C 53.570312 114.722656 53.570312 114.722656 53.570312 114.722656 C 53.566406 114.722656 53.566406 114.722656 53.5625 114.722656 C 53.558594 114.722656 53.558594 114.71875 53.554688 114.71875 C 53.554688 114.71875 53.550781 114.71875 53.550781 114.71875 C 53.546875 114.71875 53.546875 114.71875 53.542969 114.71875 C 53.539062 114.71875 53.539062 114.71875 53.539062 114.71875 C 53.539062 114.71875 53.539062 114.71875 53.535156 114.71875 C 53.535156 114.71875 53.535156 114.71875 53.53125 114.71875 C 53.527344 114.71875 53.527344 114.71875 53.527344 114.71875 C 53.527344 114.71875 53.527344 114.71875 53.523438 114.71875 C 53.519531 114.71875 53.519531 114.71875 53.519531 114.71875 L 53.515625 114.71875 C 53.515625 114.71875 53.511719 114.71875 53.511719 114.71875 C 53.507812 114.71875 53.507812 114.71875 53.507812 114.71875 C 53.507812 114.71875 53.503906 114.71875 53.503906 114.71875 C 53.5 114.71875 53.5 114.71875 53.5 114.71875 C 53.5 114.71875 53.5 114.71875 53.496094 114.71875 C 53.492188 114.71875 53.492188 114.71875 53.492188 114.71875 C 53.492188 114.71875 53.492188 114.71875 53.488281 114.71875 C 53.488281 114.71875 53.484375 114.71875 53.484375 114.71875 C 53.484375 114.71875 53.480469 114.71875 53.480469 114.71875 C 53.480469 114.71875 53.476562 114.71875 53.476562 114.71875 L 52.367188 114.71875 C 52.214844 114.71875 52.089844 114.839844 52.089844 114.996094 C 52.089844 115.148438 52.214844 115.273438 52.367188 115.273438 L 53.476562 115.273438 C 53.527344 115.273438 53.582031 115.28125 53.628906 115.292969 Z M 53.628906 115.292969 " fill-opacity="1" fill-rule="nonzero"/><path fill="#fffefd" d="M 51.105469 136.351562 L 49.996094 136.351562 C 49.839844 136.351562 49.71875 136.472656 49.71875 136.628906 C 49.71875 136.78125 49.839844 136.90625 49.996094 136.90625 L 51.105469 136.90625 C 51.257812 136.90625 51.382812 136.78125 51.382812 136.628906 C 51.382812 136.472656 51.257812 136.351562 51.105469 136.351562 Z M 51.105469 136.351562 " fill-opacity="1" fill-rule="nonzero"/><path fill="#fffefd" d="M 47.777344 136.351562 L 46.667969 136.351562 C 46.511719 136.351562 46.390625 136.472656 46.390625 136.628906 C 46.390625 136.78125 46.511719 136.90625 46.667969 136.90625 L 47.777344 136.90625 C 47.929688 136.90625 48.054688 136.78125 48.054688 136.628906 C 48.054688 136.472656 47.929688 136.351562 47.777344 136.351562 Z M 47.777344 136.351562 " fill-opacity="1" fill-rule="nonzero"/><path fill="#fffefd" d="M 54.308594 116.335938 C 54.15625 116.335938 54.03125 116.460938 54.03125 116.613281 L 54.03125 117.722656 C 54.03125 117.878906 54.15625 118 54.308594 118 C 54.460938 118 54.585938 117.878906 54.585938 117.722656 L 54.585938 116.613281 C 54.585938 116.460938 54.460938 116.335938 54.308594 116.335938 Z M 54.308594 116.335938 " fill-opacity="1" fill-rule="nonzero"/><path fill="#fffefd" d="M 54.308594 119.664062 C 54.15625 119.664062 54.03125 119.789062 54.03125 119.941406 L 54.03125 121.050781 C 54.03125 121.207031 54.15625 121.328125 54.308594 121.328125 C 54.460938 121.328125 54.585938 121.207031 54.585938 121.050781 L 54.585938 119.941406 C 54.585938 119.789062 54.460938 119.664062 54.308594 119.664062 Z M 54.308594 119.664062 " fill-opacity="1" fill-rule="nonzero"/><path fill="#fffefd" d="M 54.308594 126.320312 C 54.15625 126.320312 54.03125 126.445312 54.03125 126.597656 L 54.03125 127.707031 C 54.03125 127.863281 54.15625 127.984375 54.308594 127.984375 C 54.460938 127.984375 54.585938 127.863281 54.585938 127.707031 L 54.585938 126.597656 C 54.585938 126.445312 54.460938 126.320312 54.308594 126.320312 Z M 54.308594 126.320312 " fill-opacity="1" fill-rule="nonzero"/><path fill="#fffefd" d="M 54.308594 122.992188 C 54.15625 122.992188 54.03125 123.117188 54.03125 123.269531 L 54.03125 124.378906 C 54.03125 124.535156 54.15625 124.65625 54.308594 124.65625 C 54.460938 124.65625 54.585938 124.535156 54.585938 124.378906 L 54.585938 123.269531 C 54.585938 123.117188 54.460938 122.992188 54.308594 122.992188 Z M 54.308594 122.992188 " fill-opacity="1" fill-rule="nonzero"/><path fill="#fffefd" d="M 27.808594 136.351562 L 26.699219 136.351562 C 26.542969 136.351562 26.421875 136.472656 26.421875 136.628906 C 26.421875 136.78125 26.542969 136.90625 26.699219 136.90625 L 27.808594 136.90625 C 27.960938 136.90625 28.085938 136.78125 28.085938 136.628906 C 28.085938 136.472656 27.960938 136.351562 27.808594 136.351562 Z M 27.808594 136.351562 " fill-opacity="1" fill-rule="nonzero"/><path fill="#fffefd" d="M 34.464844 136.351562 L 33.355469 136.351562 C 33.199219 136.351562 33.078125 136.472656 33.078125 136.628906 C 33.078125 136.78125 33.199219 136.90625 33.355469 136.90625 L 34.464844 136.90625 C 34.617188 136.90625 34.742188 136.78125 34.742188 136.628906 C 34.742188 136.472656 34.617188 136.351562 34.464844 136.351562 Z M 34.464844 136.351562 " fill-opacity="1" fill-rule="nonzero"/><path fill="#fffefd" d="M 31.136719 136.351562 L 30.027344 136.351562 C 29.871094 136.351562 29.75 136.472656 29.75 136.628906 C 29.75 136.78125 29.871094 136.90625 30.027344 136.90625 L 31.136719 136.90625 C 31.289062 136.90625 31.414062 136.78125 31.414062 136.628906 C 31.414062 136.472656 31.289062 136.351562 31.136719 136.351562 Z M 31.136719 136.351562 " fill-opacity="1" fill-rule="nonzero"/><path fill="#fffefd" d="M 44.449219 136.351562 L 43.339844 136.351562 C 43.183594 136.351562 43.0625 136.472656 43.0625 136.628906 C 43.0625 136.78125 43.183594 136.90625 43.339844 136.90625 L 44.449219 136.90625 C 44.601562 136.90625 44.726562 136.78125 44.726562 136.628906 C 44.726562 136.472656 44.601562 136.351562 44.449219 136.351562 Z M 44.449219 136.351562 " fill-opacity="1" fill-rule="nonzero"/><path fill="#fffefd" d="M 33.785156 114.996094 C 33.785156 114.839844 33.660156 114.71875 33.507812 114.71875 L 32.398438 114.71875 C 32.246094 114.71875 32.121094 114.839844 32.121094 114.996094 C 32.121094 115.148438 32.246094 115.273438 32.398438 115.273438 L 33.507812 115.273438 C 33.660156 115.273438 33.785156 115.148438 33.785156 114.996094 Z M 33.785156 114.996094 " fill-opacity="1" fill-rule="nonzero"/><path fill="#fffefd" d="M 41.121094 136.351562 L 40.011719 136.351562 C 39.855469 136.351562 39.734375 136.472656 39.734375 136.628906 C 39.734375 136.78125 39.855469 136.90625 40.011719 136.90625 L 41.121094 136.90625 C 41.273438 136.90625 41.398438 136.78125 41.398438 136.628906 C 41.398438 136.472656 41.273438 136.351562 41.121094 136.351562 Z M 41.121094 136.351562 " fill-opacity="1" fill-rule="nonzero"/><path fill="#fffefd" d="M 37.792969 136.351562 L 36.683594 136.351562 C 36.527344 136.351562 36.40625 136.472656 36.40625 136.628906 C 36.40625 136.78125 36.527344 136.90625 36.683594 136.90625 L 37.792969 136.90625 C 37.945312 136.90625 38.070312 136.78125 38.070312 136.628906 C 38.070312 136.472656 37.945312 136.351562 37.792969 136.351562 Z M 37.792969 136.351562 " fill-opacity="1" fill-rule="nonzero"/><path fill="#fffefd" d="M 40.441406 114.996094 C 40.441406 114.839844 40.316406 114.71875 40.164062 114.71875 L 39.054688 114.71875 C 38.902344 114.71875 38.777344 114.839844 38.777344 114.996094 C 38.777344 115.148438 38.902344 115.273438 39.054688 115.273438 L 40.164062 115.273438 C 40.316406 115.273438 40.441406 115.148438 40.441406 114.996094 Z M 40.441406 114.996094 " fill-opacity="1" fill-rule="nonzero"/><path fill="#fffefd" d="M 7.992188 123.316406 C 7.839844 123.316406 7.714844 123.4375 7.714844 123.59375 L 7.714844 124.703125 C 7.714844 124.855469 7.839844 124.980469 7.992188 124.980469 C 8.144531 124.980469 8.269531 124.855469 8.269531 124.703125 L 8.269531 123.59375 C 8.269531 123.4375 8.144531 123.316406 7.992188 123.316406 Z M 7.992188 123.316406 " fill-opacity="1" fill-rule="nonzero"/><path fill="#fffefd" d="M 7.992188 136.628906 C 7.839844 136.628906 7.714844 136.75 7.714844 136.90625 L 7.714844 138.015625 C 7.714844 138.167969 7.839844 138.292969 7.992188 138.292969 C 8.144531 138.292969 8.269531 138.167969 8.269531 138.015625 L 8.269531 136.90625 C 8.269531 136.75 8.144531 136.628906 7.992188 136.628906 Z M 7.992188 136.628906 " fill-opacity="1" fill-rule="nonzero"/><path fill="#fffefd" d="M 7.992188 119.988281 C 7.839844 119.988281 7.714844 120.109375 7.714844 120.265625 L 7.714844 121.375 C 7.714844 121.527344 7.839844 121.652344 7.992188 121.652344 C 8.144531 121.652344 8.269531 121.527344 8.269531 121.375 L 8.269531 120.265625 C 8.269531 120.109375 8.144531 119.988281 7.992188 119.988281 Z M 7.992188 119.988281 " fill-opacity="1" fill-rule="nonzero"/><path fill="#fffefd" d="M 7.992188 126.644531 C 7.839844 126.644531 7.714844 126.765625 7.714844 126.921875 L 7.714844 128.03125 C 7.714844 128.183594 7.839844 128.308594 7.992188 128.308594 C 8.144531 128.308594 8.269531 128.183594 8.269531 128.03125 L 8.269531 126.921875 C 8.269531 126.765625 8.144531 126.644531 7.992188 126.644531 Z M 7.992188 126.644531 " fill-opacity="1" fill-rule="nonzero"/><path fill="#fffefd" d="M 7.992188 129.972656 C 7.839844 129.972656 7.714844 130.09375 7.714844 130.25 L 7.714844 131.359375 C 7.714844 131.511719 7.839844 131.636719 7.992188 131.636719 C 8.144531 131.636719 8.269531 131.511719 8.269531 131.359375 L 8.269531 130.25 C 8.269531 130.09375 8.144531 129.972656 7.992188 129.972656 Z M 7.992188 129.972656 " fill-opacity="1" fill-rule="nonzero"/><path fill="#fffefd" d="M 7.992188 133.300781 C 7.839844 133.300781 7.714844 133.421875 7.714844 133.578125 L 7.714844 134.6875 C 7.714844 134.839844 7.839844 134.964844 7.992188 134.964844 C 8.144531 134.964844 8.269531 134.839844 8.269531 134.6875 L 8.269531 133.578125 C 8.269531 133.421875 8.144531 133.300781 7.992188 133.300781 Z M 7.992188 133.300781 " fill-opacity="1" fill-rule="nonzero"/><path fill="#fffefd" d="M 7.992188 116.660156 C 7.839844 116.660156 7.714844 116.78125 7.714844 116.9375 L 7.714844 118.046875 C 7.714844 118.199219 7.839844 118.324219 7.992188 118.324219 C 8.144531 118.324219 8.269531 118.199219 8.269531 118.046875 L 8.269531 116.9375 C 8.269531 116.78125 8.144531 116.660156 7.992188 116.660156 Z M 7.992188 116.660156 " fill-opacity="1" fill-rule="nonzero"/><path fill="#fffefd" d="M 7.992188 113.332031 C 7.839844 113.332031 7.714844 113.453125 7.714844 113.609375 L 7.714844 114.71875 C 7.714844 114.871094 7.839844 114.996094 7.992188 114.996094 C 8.144531 114.996094 8.269531 114.871094 8.269531 114.71875 L 8.269531 113.609375 C 8.269531 113.453125 8.144531 113.332031 7.992188 113.332031 Z M 7.992188 113.332031 " fill-opacity="1" fill-rule="nonzero"/><path fill="#fffefd" d="M 59.023438 113.332031 C 58.871094 113.332031 58.746094 113.453125 58.746094 113.609375 L 58.746094 114.71875 C 58.746094 114.871094 58.871094 114.996094 59.023438 114.996094 C 59.175781 114.996094 59.300781 114.871094 59.300781 114.71875 L 59.300781 113.609375 C 59.300781 113.453125 59.175781 113.332031 59.023438 113.332031 Z M 59.023438 113.332031 " fill-opacity="1" fill-rule="nonzero"/><path fill="#fffefd" d="M 59.023438 126.644531 C 58.871094 126.644531 58.746094 126.765625 58.746094 126.921875 L 58.746094 128.03125 C 58.746094 128.183594 58.871094 128.308594 59.023438 128.308594 C 59.175781 128.308594 59.300781 128.183594 59.300781 128.03125 L 59.300781 126.921875 C 59.300781 126.765625 59.175781 126.644531 59.023438 126.644531 Z M 59.023438 126.644531 " fill-opacity="1" fill-rule="nonzero"/><path fill="#fffefd" d="M 59.023438 119.988281 C 58.871094 119.988281 58.746094 120.109375 58.746094 120.265625 L 58.746094 121.375 C 58.746094 121.527344 58.871094 121.652344 59.023438 121.652344 C 59.175781 121.652344 59.300781 121.527344 59.300781 121.375 L 59.300781 120.265625 C 59.300781 120.109375 59.175781 119.988281 59.023438 119.988281 Z M 59.023438 119.988281 " fill-opacity="1" fill-rule="nonzero"/><path fill="#fffefd" d="M 59.023438 123.316406 C 58.871094 123.316406 58.746094 123.4375 58.746094 123.59375 L 58.746094 124.703125 C 58.746094 124.855469 58.871094 124.980469 59.023438 124.980469 C 59.175781 124.980469 59.300781 124.855469 59.300781 124.703125 L 59.300781 123.59375 C 59.300781 123.4375 59.175781 123.316406 59.023438 123.316406 Z M 59.023438 123.316406 " fill-opacity="1" fill-rule="nonzero"/><path fill="#fffefd" d="M 59.023438 116.660156 C 58.871094 116.660156 58.746094 116.78125 58.746094 116.9375 L 58.746094 118.046875 C 58.746094 118.199219 58.871094 118.324219 59.023438 118.324219 C 59.175781 118.324219 59.300781 118.199219 59.300781 118.046875 L 59.300781 116.9375 C 59.300781 116.78125 59.175781 116.660156 59.023438 116.660156 Z M 59.023438 116.660156 " fill-opacity="1" fill-rule="nonzero"/><path fill="#fffefd" d="M 59.023438 136.628906 C 58.871094 136.628906 58.746094 136.75 58.746094 136.90625 L 58.746094 138.015625 C 58.746094 138.167969 58.871094 138.292969 59.023438 138.292969 C 59.175781 138.292969 59.300781 138.167969 59.300781 138.015625 L 59.300781 136.90625 C 59.300781 136.75 59.175781 136.628906 59.023438 136.628906 Z M 59.023438 136.628906 " fill-opacity="1" fill-rule="nonzero"/><path fill="#fffefd" d="M 59.023438 129.972656 C 58.871094 129.972656 58.746094 130.09375 58.746094 130.25 L 58.746094 131.359375 C 58.746094 131.511719 58.871094 131.636719 59.023438 131.636719 C 59.175781 131.636719 59.300781 131.511719 59.300781 131.359375 L 59.300781 130.25 C 59.300781 130.09375 59.175781 129.972656 59.023438 129.972656 Z M 59.023438 129.972656 " fill-opacity="1" fill-rule="nonzero"/><path fill="#fffefd" d="M 59.023438 133.300781 C 58.871094 133.300781 58.746094 133.421875 58.746094 133.578125 L 58.746094 134.6875 C 58.746094 134.839844 58.871094 134.964844 59.023438 134.964844 C 59.175781 134.964844 59.300781 134.839844 59.300781 134.6875 L 59.300781 133.578125 C 59.300781 133.421875 59.175781 133.300781 59.023438 133.300781 Z M 59.023438 133.300781 " fill-opacity="1" fill-rule="nonzero"/><g fill="#fffefd" fill-opacity="1"><g transform="translate(117.399656, 102.175379)"><g><path d="M 21.9375 0 L 13.25 0 C 12.5625 0 12.066406 -0.148438 11.765625 -0.453125 C 11.460938 -0.753906 11.3125 -1.25 11.3125 -1.9375 L 11.3125 -28.265625 L 3.4375 -28.265625 C 2.75 -28.265625 2.253906 -28.414062 1.953125 -28.71875 C 1.648438 -29.019531 1.5 -29.507812 1.5 -30.1875 L 1.5 -36.671875 C 1.5 -37.359375 1.648438 -37.851562 1.953125 -38.15625 C 2.253906 -38.457031 2.75 -38.609375 3.4375 -38.609375 L 31.75 -38.609375 C 32.425781 -38.609375 32.914062 -38.457031 33.21875 -38.15625 C 33.519531 -37.851562 33.671875 -37.359375 33.671875 -36.671875 L 33.671875 -30.1875 C 33.671875 -29.507812 33.519531 -29.019531 33.21875 -28.71875 C 32.914062 -28.414062 32.425781 -28.265625 31.75 -28.265625 L 23.859375 -28.265625 L 23.859375 -1.9375 C 23.859375 -1.25 23.707031 -0.753906 23.40625 -0.453125 C 23.101562 -0.148438 22.613281 0 21.9375 0 Z M 21.9375 0 "/></g></g></g><g fill="#fffefd" fill-opacity="1"><g transform="translate(155.622028, 102.175379)"><g><path d="M 4.765625 0 C 4.085938 0 3.597656 -0.148438 3.296875 -0.453125 C 2.992188 -0.753906 2.84375 -1.25 2.84375 -1.9375 L 2.84375 -8.3125 C 2.84375 -8.988281 2.992188 -9.476562 3.296875 -9.78125 C 3.597656 -10.09375 4.085938 -10.25 4.765625 -10.25 L 10.078125 -10.25 L 10.078125 -28.265625 L 4.765625 -28.265625 C 4.085938 -28.265625 3.597656 -28.414062 3.296875 -28.71875 C 2.992188 -29.019531 2.84375 -29.507812 2.84375 -30.1875 L 2.84375 -36.671875 C 2.84375 -37.359375 2.992188 -37.851562 3.296875 -38.15625 C 3.597656 -38.457031 4.085938 -38.609375 4.765625 -38.609375 L 27.609375 -38.609375 C 28.296875 -38.609375 28.789062 -38.457031 29.09375 -38.15625 C 29.394531 -37.851562 29.546875 -37.359375 29.546875 -36.671875 L 29.546875 -30.1875 C 29.546875 -29.507812 29.394531 -29.019531 29.09375 -28.71875 C 28.789062 -28.414062 28.296875 -28.265625 27.609375 -28.265625 L 22.421875 -28.265625 L 22.421875 -10.25 L 27.609375 -10.25 C 28.296875 -10.25 28.789062 -10.09375 29.09375 -9.78125 C 29.394531 -9.476562 29.546875 -8.988281 29.546875 -8.3125 L 29.546875 -1.9375 C 29.546875 -1.25 29.394531 -0.753906 29.09375 -0.453125 C 28.789062 -0.148438 28.296875 0 27.609375 0 Z M 4.765625 0 "/></g></g></g><g fill="#fffefd" fill-opacity="1"><g transform="translate(191.110476, 102.175379)"><g><path d="M 29.390625 0 L 16.296875 0 C 11.828125 0 8.507812 -0.890625 6.34375 -2.671875 C 4.1875 -4.460938 3.109375 -7.21875 3.109375 -10.9375 L 3.109375 -27.609375 C 3.109375 -31.328125 4.1875 -34.085938 6.34375 -35.890625 C 8.507812 -37.703125 11.828125 -38.609375 16.296875 -38.609375 L 29.390625 -38.609375 C 30.066406 -38.609375 30.554688 -38.457031 30.859375 -38.15625 C 31.160156 -37.851562 31.3125 -37.359375 31.3125 -36.671875 L 31.3125 -30.1875 C 31.3125 -29.507812 31.160156 -29.019531 30.859375 -28.71875 C 30.554688 -28.414062 30.066406 -28.265625 29.390625 -28.265625 L 18.609375 -28.265625 C 17.503906 -28.265625 16.679688 -28.039062 16.140625 -27.59375 C 15.609375 -27.144531 15.34375 -26.472656 15.34375 -25.578125 L 15.34375 -12.8125 C 15.34375 -11.914062 15.609375 -11.265625 16.140625 -10.859375 C 16.679688 -10.453125 17.503906 -10.25 18.609375 -10.25 L 29.390625 -10.25 C 30.066406 -10.25 30.554688 -10.09375 30.859375 -9.78125 C 31.160156 -9.476562 31.3125 -8.988281 31.3125 -8.3125 L 31.3125 -1.9375 C 31.3125 -1.25 31.160156 -0.753906 30.859375 -0.453125 C 30.554688 -0.148438 30.066406 0 29.390625 0 Z M 29.390625 0 "/></g></g></g><g fill="#fffefd" fill-opacity="1"><g transform="translate(227.831875, 102.175379)"><g><path d="M 13.9375 0 L 5.625 0 C 4.945312 0 4.457031 -0.148438 4.15625 -0.453125 C 3.851562 -0.753906 3.703125 -1.25 3.703125 -1.9375 L 3.703125 -36.671875 C 3.703125 -37.359375 3.851562 -37.851562 4.15625 -38.15625 C 4.457031 -38.457031 4.945312 -38.609375 5.625 -38.609375 L 13.9375 -38.609375 C 14.625 -38.609375 15.117188 -38.457031 15.421875 -38.15625 C 15.722656 -37.851562 15.875 -37.359375 15.875 -36.671875 L 15.875 -24.34375 L 18.015625 -24.34375 L 23.546875 -36.84375 C 23.796875 -37.488281 24.132812 -37.941406 24.5625 -38.203125 C 24.988281 -38.472656 25.539062 -38.609375 26.21875 -38.609375 L 34.484375 -38.609375 C 35.085938 -38.609375 35.492188 -38.457031 35.703125 -38.15625 C 35.921875 -37.851562 35.90625 -37.414062 35.65625 -36.84375 L 30.1875 -24.34375 C 32.1875 -24.238281 33.785156 -23.53125 34.984375 -22.21875 C 36.179688 -20.914062 36.78125 -19.191406 36.78125 -17.046875 L 36.78125 -1.9375 C 36.78125 -1.25 36.628906 -0.753906 36.328125 -0.453125 C 36.023438 -0.148438 35.535156 0 34.859375 0 L 26.59375 0 C 25.914062 0 25.425781 -0.148438 25.125 -0.453125 C 24.820312 -0.753906 24.671875 -1.25 24.671875 -1.9375 L 24.671875 -12.390625 C 24.671875 -12.960938 24.523438 -13.40625 24.234375 -13.71875 C 23.953125 -14.039062 23.523438 -14.203125 22.953125 -14.203125 L 15.875 -14.203125 L 15.875 -1.9375 C 15.875 -1.25 15.722656 -0.753906 15.421875 -0.453125 C 15.117188 -0.148438 14.625 0 13.9375 0 Z M 13.9375 0 "/></g></g></g><g fill="#fffefd" fill-opacity="1"><g transform="translate(270.878827, 102.175379)"><g><path d="M 30.515625 0 L 5.625 0 C 4.945312 0 4.457031 -0.148438 4.15625 -0.453125 C 3.851562 -0.753906 3.703125 -1.25 3.703125 -1.9375 L 3.703125 -36.671875 C 3.703125 -37.359375 3.851562 -37.851562 4.15625 -38.15625 C 4.457031 -38.457031 4.945312 -38.609375 5.625 -38.609375 L 30.515625 -38.609375 C 31.191406 -38.609375 31.679688 -38.457031 31.984375 -38.15625 C 32.285156 -37.851562 32.4375 -37.359375 32.4375 -36.671875 L 32.4375 -30.40625 C 32.4375 -29.726562 32.285156 -29.234375 31.984375 -28.921875 C 31.679688 -28.617188 31.191406 -28.46875 30.515625 -28.46875 L 15.71875 -28.46875 L 15.71875 -24.34375 L 26.171875 -24.34375 C 26.847656 -24.34375 27.335938 -24.191406 27.640625 -23.890625 C 27.941406 -23.585938 28.09375 -23.097656 28.09375 -22.421875 L 28.09375 -16.671875 C 28.09375 -15.992188 27.941406 -15.503906 27.640625 -15.203125 C 27.335938 -14.898438 26.847656 -14.75 26.171875 -14.75 L 15.71875 -14.75 L 15.71875 -10.140625 L 30.515625 -10.140625 C 31.191406 -10.140625 31.679688 -9.984375 31.984375 -9.671875 C 32.285156 -9.367188 32.4375 -8.878906 32.4375 -8.203125 L 32.4375 -1.9375 C 32.4375 -1.25 32.285156 -0.753906 31.984375 -0.453125 C 31.679688 -0.148438 31.191406 0 30.515625 0 Z M 30.515625 0 "/></g></g></g><g fill="#fffefd" fill-opacity="1"><g transform="translate(308.993991, 102.175379)"><g><path d="M 21.9375 0 L 13.25 0 C 12.5625 0 12.066406 -0.148438 11.765625 -0.453125 C 11.460938 -0.753906 11.3125 -1.25 11.3125 -1.9375 L 11.3125 -28.265625 L 3.4375 -28.265625 C 2.75 -28.265625 2.253906 -28.414062 1.953125 -28.71875 C 1.648438 -29.019531 1.5 -29.507812 1.5 -30.1875 L 1.5 -36.671875 C 1.5 -37.359375 1.648438 -37.851562 1.953125 -38.15625 C 2.253906 -38.457031 2.75 -38.609375 3.4375 -38.609375 L 31.75 -38.609375 C 32.425781 -38.609375 32.914062 -38.457031 33.21875 -38.15625 C 33.519531 -37.851562 33.671875 -37.359375 33.671875 -36.671875 L 33.671875 -30.1875 C 33.671875 -29.507812 33.519531 -29.019531 33.21875 -28.71875 C 32.914062 -28.414062 32.425781 -28.265625 31.75 -28.265625 L 23.859375 -28.265625 L 23.859375 -1.9375 C 23.859375 -1.25 23.707031 -0.753906 23.40625 -0.453125 C 23.101562 -0.148438 22.613281 0 21.9375 0 Z M 21.9375 0 "/></g></g></g><g fill="#fffefd" fill-opacity="1"><g transform="translate(113.481887, 177.022312)"><g><path d="M 15.8125 -28.953125 L 15.8125 -22.09375 L 19.84375 -22.09375 C 20.769531 -22.09375 21.394531 -22.332031 21.71875 -22.8125 C 22.039062 -23.300781 22.203125 -23.898438 22.203125 -24.609375 L 22.203125 -26.4375 C 22.203125 -27.15625 22.039062 -27.753906 21.71875 -28.234375 C 21.394531 -28.710938 20.769531 -28.953125 19.84375 -28.953125 Z M 13.890625 0 L 5.625 0 C 4.945312 0 4.457031 -0.148438 4.15625 -0.453125 C 3.851562 -0.753906 3.703125 -1.25 3.703125 -1.9375 L 3.703125 -36.671875 C 3.703125 -37.359375 3.851562 -37.851562 4.15625 -38.15625 C 4.457031 -38.457031 4.945312 -38.609375 5.625 -38.609375 L 23.484375 -38.609375 C 27.492188 -38.609375 30.253906 -37.773438 31.765625 -36.109375 C 33.285156 -34.453125 34.046875 -32.300781 34.046875 -29.65625 L 34.046875 -27.1875 C 34.046875 -25.6875 33.820312 -24.40625 33.375 -23.34375 C 32.9375 -22.289062 32.160156 -21.535156 31.046875 -21.078125 C 32.972656 -20.859375 34.535156 -20.066406 35.734375 -18.703125 C 36.929688 -17.347656 37.53125 -15.546875 37.53125 -13.296875 L 37.53125 -1.9375 C 37.53125 -1.25 37.378906 -0.753906 37.078125 -0.453125 C 36.773438 -0.148438 36.285156 0 35.609375 0 L 27.296875 0 C 26.617188 0 26.125 -0.148438 25.8125 -0.453125 C 25.507812 -0.753906 25.359375 -1.25 25.359375 -1.9375 L 25.359375 -10.140625 C 25.359375 -10.921875 25.207031 -11.5 24.90625 -11.875 C 24.601562 -12.25 24.078125 -12.4375 23.328125 -12.4375 L 15.8125 -12.4375 L 15.8125 -1.9375 C 15.8125 -1.25 15.660156 -0.753906 15.359375 -0.453125 C 15.054688 -0.148438 14.566406 0 13.890625 0 Z M 13.890625 0 "/></g></g></g><g fill="#fffefd" fill-opacity="1"><g transform="translate(156.368017, 177.022312)"><g><path d="M 30.515625 0 L 5.625 0 C 4.945312 0 4.457031 -0.148438 4.15625 -0.453125 C 3.851562 -0.753906 3.703125 -1.25 3.703125 -1.9375 L 3.703125 -36.671875 C 3.703125 -37.359375 3.851562 -37.851562 4.15625 -38.15625 C 4.457031 -38.457031 4.945312 -38.609375 5.625 -38.609375 L 30.515625 -38.609375 C 31.191406 -38.609375 31.679688 -38.457031 31.984375 -38.15625 C 32.285156 -37.851562 32.4375 -37.359375 32.4375 -36.671875 L 32.4375 -30.40625 C 32.4375 -29.726562 32.285156 -29.234375 31.984375 -28.921875 C 31.679688 -28.617188 31.191406 -28.46875 30.515625 -28.46875 L 15.71875 -28.46875 L 15.71875 -24.34375 L 26.171875 -24.34375 C 26.847656 -24.34375 27.335938 -24.191406 27.640625 -23.890625 C 27.941406 -23.585938 28.09375 -23.097656 28.09375 -22.421875 L 28.09375 -16.671875 C 28.09375 -15.992188 27.941406 -15.503906 27.640625 -15.203125 C 27.335938 -14.898438 26.847656 -14.75 26.171875 -14.75 L 15.71875 -14.75 L 15.71875 -10.140625 L 30.515625 -10.140625 C 31.191406 -10.140625 31.679688 -9.984375 31.984375 -9.671875 C 32.285156 -9.367188 32.4375 -8.878906 32.4375 -8.203125 L 32.4375 -1.9375 C 32.4375 -1.25 32.285156 -0.753906 31.984375 -0.453125 C 31.679688 -0.148438 31.191406 0 30.515625 0 Z M 30.515625 0 "/></g></g></g><g fill="#fffefd" fill-opacity="1"><g transform="translate(194.483177, 177.022312)"><g><path d="M 21.609375 0 L 4.671875 0 C 3.984375 0 3.488281 -0.148438 3.1875 -0.453125 C 2.882812 -0.753906 2.734375 -1.25 2.734375 -1.9375 L 2.734375 -8.203125 C 2.734375 -8.878906 2.882812 -9.367188 3.1875 -9.671875 C 3.488281 -9.984375 3.984375 -10.140625 4.671875 -10.140625 L 19.09375 -10.140625 C 19.550781 -10.140625 19.894531 -10.289062 20.125 -10.59375 C 20.363281 -10.894531 20.484375 -11.257812 20.484375 -11.6875 C 20.484375 -12.300781 20.363281 -12.75 20.125 -13.03125 C 19.894531 -13.3125 19.550781 -13.472656 19.09375 -13.515625 L 11.046875 -14.640625 C 8.546875 -14.992188 6.535156 -15.8125 5.015625 -17.09375 C 3.492188 -18.382812 2.734375 -20.535156 2.734375 -23.546875 L 2.734375 -29.171875 C 2.734375 -32.210938 3.71875 -34.546875 5.6875 -36.171875 C 7.65625 -37.796875 10.367188 -38.609375 13.828125 -38.609375 L 28.84375 -38.609375 C 29.53125 -38.609375 30.023438 -38.457031 30.328125 -38.15625 C 30.628906 -37.851562 30.78125 -37.359375 30.78125 -36.671875 L 30.78125 -30.296875 C 30.78125 -29.617188 30.628906 -29.128906 30.328125 -28.828125 C 30.023438 -28.523438 29.53125 -28.375 28.84375 -28.375 L 16.359375 -28.375 C 15.890625 -28.375 15.53125 -28.21875 15.28125 -27.90625 C 15.03125 -27.601562 14.90625 -27.222656 14.90625 -26.765625 C 14.90625 -26.296875 15.03125 -25.898438 15.28125 -25.578125 C 15.53125 -25.253906 15.890625 -25.078125 16.359375 -25.046875 L 24.34375 -23.96875 C 26.84375 -23.613281 28.863281 -22.789062 30.40625 -21.5 C 31.945312 -20.21875 32.71875 -18.070312 32.71875 -15.0625 L 32.71875 -9.4375 C 32.71875 -6.394531 31.722656 -4.0625 29.734375 -2.4375 C 27.753906 -0.8125 25.046875 0 21.609375 0 Z M 21.609375 0 "/></g></g></g><g fill="#fffefd" fill-opacity="1"><g transform="translate(232.383909, 177.022312)"><g><path d="M 30.515625 0 L 5.625 0 C 4.945312 0 4.457031 -0.148438 4.15625 -0.453125 C 3.851562 -0.753906 3.703125 -1.25 3.703125 -1.9375 L 3.703125 -36.671875 C 3.703125 -37.359375 3.851562 -37.851562 4.15625 -38.15625 C 4.457031 -38.457031 4.945312 -38.609375 5.625 -38.609375 L 30.515625 -38.609375 C 31.191406 -38.609375 31.679688 -38.457031 31.984375 -38.15625 C 32.285156 -37.851562 32.4375 -37.359375 32.4375 -36.671875 L 32.4375 -30.40625 C 32.4375 -29.726562 32.285156 -29.234375 31.984375 -28.921875 C 31.679688 -28.617188 31.191406 -28.46875 30.515625 -28.46875 L 15.71875 -28.46875 L 15.71875 -24.34375 L 26.171875 -24.34375 C 26.847656 -24.34375 27.335938 -24.191406 27.640625 -23.890625 C 27.941406 -23.585938 28.09375 -23.097656 28.09375 -22.421875 L 28.09375 -16.671875 C 28.09375 -15.992188 27.941406 -15.503906 27.640625 -15.203125 C 27.335938 -14.898438 26.847656 -14.75 26.171875 -14.75 L 15.71875 -14.75 L 15.71875 -10.140625 L 30.515625 -10.140625 C 31.191406 -10.140625 31.679688 -9.984375 31.984375 -9.671875 C 32.285156 -9.367188 32.4375 -8.878906 32.4375 -8.203125 L 32.4375 -1.9375 C 32.4375 -1.25 32.285156 -0.753906 31.984375 -0.453125 C 31.679688 -0.148438 31.191406 0 30.515625 0 Z M 30.515625 0 "/></g></g></g><g fill="#fffefd" fill-opacity="1"><g transform="translate(270.499072, 177.022312)"><g><path d="M 32.921875 0 L 5.625 0 C 4.945312 0 4.457031 -0.148438 4.15625 -0.453125 C 3.851562 -0.753906 3.703125 -1.25 3.703125 -1.9375 L 3.703125 -36.671875 C 3.703125 -37.359375 3.851562 -37.851562 4.15625 -38.15625 C 4.457031 -38.457031 4.945312 -38.609375 5.625 -38.609375 L 13.9375 -38.609375 C 14.625 -38.609375 15.117188 -38.457031 15.421875 -38.15625 C 15.722656 -37.851562 15.875 -37.359375 15.875 -36.671875 L 15.875 -10.140625 L 23.21875 -10.140625 L 23.21875 -18.828125 C 23.21875 -19.503906 23.367188 -19.992188 23.671875 -20.296875 C 23.972656 -20.597656 24.46875 -20.75 25.15625 -20.75 L 32.921875 -20.75 C 33.597656 -20.75 34.085938 -20.597656 34.390625 -20.296875 C 34.703125 -19.992188 34.859375 -19.503906 34.859375 -18.828125 L 34.859375 -1.9375 C 34.859375 -1.25 34.703125 -0.753906 34.390625 -0.453125 C 34.085938 -0.148438 33.597656 0 32.921875 0 Z M 32.921875 0 "/></g></g></g><g fill="#fffefd" fill-opacity="1"><g transform="translate(310.812099, 177.022312)"><g><path d="M 32.921875 0 L 5.625 0 C 4.945312 0 4.457031 -0.148438 4.15625 -0.453125 C 3.851562 -0.753906 3.703125 -1.25 3.703125 -1.9375 L 3.703125 -36.671875 C 3.703125 -37.359375 3.851562 -37.851562 4.15625 -38.15625 C 4.457031 -38.457031 4.945312 -38.609375 5.625 -38.609375 L 13.9375 -38.609375 C 14.625 -38.609375 15.117188 -38.457031 15.421875 -38.15625 C 15.722656 -37.851562 15.875 -37.359375 15.875 -36.671875 L 15.875 -10.140625 L 23.21875 -10.140625 L 23.21875 -18.828125 C 23.21875 -19.503906 23.367188 -19.992188 23.671875 -20.296875 C 23.972656 -20.597656 24.46875 -20.75 25.15625 -20.75 L 32.921875 -20.75 C 33.597656 -20.75 34.085938 -20.597656 34.390625 -20.296875 C 34.703125 -19.992188 34.859375 -19.503906 34.859375 -18.828125 L 34.859375 -1.9375 C 34.859375 -1.25 34.703125 -0.753906 34.390625 -0.453125 C 34.085938 -0.148438 33.597656 0 32.921875 0 Z M 32.921875 0 "/></g></g></g></svg>