<?xml version="1.0" standalone="no"?>
<!DOCTYPE svg PUBLIC "-//W3C//DTD SVG 20010904//EN"
 "http://www.w3.org/TR/2001/REC-SVG-20010904/DTD/svg10.dtd">
<svg version="1.0" xmlns="http://www.w3.org/2000/svg"
 width="600.000000pt" height="600.000000pt" viewBox="0 0 600.000000 600.000000"
 preserveAspectRatio="xMidYMid meet">
<metadata>
Created by potrace 1.10, written by Peter Selinger 2001-2011
</metadata>
<g transform="translate(0.000000,600.000000) scale(0.100000,-0.100000)"
fill="#ffffff" stroke="none">
<path d="M50 3592 c-39 -6 -50 -21 -50 -66 0 -39 3 -44 35 -59 42 -20 162 -22
215 -4 41 14 59 52 44 95 -9 27 -11 27 -114 32 -58 3 -116 3 -130 2z"/>
<path d="M1101 3592 c-666 -2 -635 1 -629 -71 2 -30 9 -39 38 -54 30 -15 60
-17 200 -16 194 2 210 -2 210 -60 0 -73 16 -71 -462 -71 -399 0 -426 -1 -441
-18 -24 -27 -22 -85 4 -108 20 -18 46 -19 528 -22 l506 -2 17 -23 c23 -28 22
-49 0 -77 -16 -20 -27 -22 -95 -21 -86 2 -135 -14 -161 -50 -21 -30 -21 -32
10 -68 l26 -31 198 0 c214 0 230 4 230 53 2 120 6 196 11 201 7 8 52 -11 104
-45 22 -14 47 -29 55 -32 8 -4 29 -16 45 -27 17 -11 39 -24 51 -29 12 -5 37
-28 57 -51 38 -45 49 -88 50 -202 1 -83 -11 -117 -46 -139 -39 -23 -72 -24
-114 -1 -145 77 -213 120 -213 136 0 6 -13 19 -29 29 -26 15 -71 17 -466 17
-395 0 -440 -2 -466 -17 -25 -15 -29 -24 -29 -60 0 -73 -1 -73 360 -73 l317 0
21 -23 c28 -29 28 -68 2 -92 -17 -16 -40 -19 -123 -21 -147 -3 -165 -13 -158
-89 4 -46 -1 -45 530 -45 334 -1 507 3 516 10 6 5 32 21 56 34 24 13 60 33 79
44 19 12 44 26 55 32 11 6 34 19 50 30 17 11 44 26 60 34 57 29 115 63 150 90
l35 27 0 299 0 298 -37 29 c-39 29 -43 31 -129 78 -27 14 -62 35 -79 46 -16
10 -37 22 -45 26 -8 3 -47 26 -87 50 -39 24 -75 43 -79 43 -4 0 -15 6 -23 14
-9 7 -27 15 -41 17 -14 2 -292 3 -619 1z m645 -132 c11 -11 77 -50 129 -76 17
-8 44 -23 60 -34 17 -10 49 -29 73 -42 54 -28 58 -35 37 -58 -36 -40 -75 -36
-165 17 -25 14 -58 33 -75 42 -16 9 -49 29 -72 44 -24 15 -46 27 -50 27 -12 1
-53 37 -53 47 0 13 53 41 81 42 14 1 30 -4 35 -9z m-281 -151 c4 -5 17 -15 28
-20 12 -5 31 -15 42 -22 11 -7 51 -30 90 -52 38 -22 79 -45 90 -52 11 -7 30
-17 43 -22 34 -16 28 -47 -13 -67 -38 -18 -45 -16 -135 38 -19 11 -55 31 -80
45 -25 13 -58 33 -75 44 -16 10 -40 23 -52 28 -12 6 -27 19 -32 30 -9 16 -6
22 22 39 36 23 63 27 72 11z m653 -168 c10 -6 13 -53 14 -195 0 -196 -2 -207
-47 -227 -11 -5 -33 -18 -50 -29 -16 -11 -39 -24 -50 -29 -11 -5 -37 -21 -58
-35 -21 -14 -43 -26 -48 -26 -6 0 -22 -9 -36 -20 -31 -24 -69 -26 -77 -4 -3 9
-6 95 -6 193 0 171 1 178 23 199 12 11 34 24 50 27 30 8 28 17 30 -105 2 -70
3 -75 25 -78 13 -2 31 3 40 11 9 8 26 17 37 21 11 3 31 15 44 25 23 18 24 23
22 120 -2 121 9 148 69 160 3 0 11 -3 18 -8z"/>
<path d="M3556 3367 c-10 -8 -22 -33 -26 -58 -15 -87 -32 -165 -46 -213 -8
-26 -14 -61 -14 -76 0 -16 -5 -41 -11 -57 -6 -15 -14 -50 -19 -78 -4 -27 -12
-70 -18 -95 -24 -101 -34 -151 -30 -156 8 -7 117 -11 128 -4 11 7 40 95 40
126 0 30 37 61 57 48 9 -6 20 -17 23 -25 4 -8 15 -28 24 -46 9 -17 16 -37 16
-45 0 -7 9 -24 19 -37 15 -20 27 -23 85 -25 49 -2 69 1 73 11 4 11 -39 117
-68 163 -5 8 -12 22 -15 30 -3 8 -12 28 -20 43 -7 16 -14 32 -14 37 0 5 52 61
117 125 130 130 130 135 27 135 l-61 0 -112 -115 c-61 -64 -111 -111 -111
-104 0 6 4 28 9 48 5 20 17 72 26 116 10 44 24 107 32 140 8 33 13 74 11 90
-3 28 -6 30 -53 33 -31 2 -57 -2 -69 -11z"/>
<path d="M4549 3354 c-11 -30 -17 -56 -44 -189 -9 -44 -23 -103 -31 -131 -8
-28 -14 -64 -14 -81 0 -17 -7 -47 -15 -66 -8 -20 -15 -52 -15 -70 0 -19 -7
-54 -15 -77 -18 -52 -19 -106 -2 -112 6 -2 34 -3 61 -2 57 2 76 20 76 70 0 17
7 48 15 67 8 20 15 51 15 68 0 18 6 55 14 83 16 56 42 174 50 221 3 17 10 53
16 80 29 130 32 147 26 152 -4 4 -33 9 -66 11 -58 4 -60 4 -71 -24z"/>
<path d="M2868 3354 c-23 -12 -28 -21 -28 -54 0 -49 21 -70 69 -70 47 0 81 33
81 78 0 55 -63 79 -122 46z"/>
<path d="M2311 3320 c-8 -5 -15 -31 -28 -92 l-5 -28 79 0 c44 0 83 -3 86 -6 3
-4 2 -15 -3 -25 -6 -9 -14 -46 -20 -81 -5 -35 -14 -81 -19 -103 -5 -22 -16
-71 -25 -110 -8 -38 -22 -104 -32 -146 -23 -102 -20 -108 57 -103 34 3 65 7
69 9 4 3 10 22 13 42 3 21 10 59 16 86 25 108 33 144 37 172 7 42 33 162 48
215 l12 45 82 3 c78 3 83 4 92 28 12 30 13 94 3 94 -91 4 -457 4 -462 0z"/>
<path d="M4069 3312 c-11 -7 -20 -30 -24 -60 -3 -26 -10 -62 -16 -80 -6 -19
-14 -57 -19 -85 -4 -29 -12 -72 -18 -97 -6 -25 -19 -81 -28 -125 -9 -44 -22
-105 -30 -136 -17 -68 -18 -99 -1 -100 31 -4 119 1 127 6 6 4 10 20 10 36 0
17 4 39 10 49 5 10 14 48 19 85 5 36 15 73 22 81 8 10 37 14 115 14 116 0 118
1 130 78 l6 41 -108 3 -109 3 3 49 c2 27 10 65 16 85 l13 36 120 3 121 3 6 27
c19 93 19 92 0 92 -11 0 -93 1 -183 3 -119 1 -169 -1 -182 -11z"/>
<path d="M2815 3158 c-18 -56 -35 -126 -35 -149 0 -14 -7 -43 -15 -62 -8 -20
-15 -51 -15 -68 0 -18 -6 -55 -14 -83 -23 -82 -39 -157 -33 -162 4 -4 96 -8
124 -5 14 1 43 91 43 132 0 14 7 43 15 62 8 20 15 51 15 68 0 18 6 55 14 83
42 151 44 181 14 190 -40 10 -108 7 -113 -6z"/>
<path d="M3175 3153 c-67 -27 -120 -77 -153 -145 -35 -72 -58 -198 -42 -228 5
-10 10 -32 10 -47 0 -44 61 -97 129 -113 43 -10 68 -10 123 0 77 13 98 32 98
88 0 43 -18 49 -85 27 -52 -16 -56 -16 -85 1 -42 26 -54 68 -40 146 21 113 77
174 153 165 23 -3 53 -8 67 -11 21 -6 28 -1 43 29 26 54 22 68 -26 88 -52 21
-139 21 -192 0z"/>
<path d="M4845 3144 c-52 -25 -115 -80 -115 -99 0 -6 -5 -16 -11 -22 -25 -25
-49 -118 -49 -191 0 -112 42 -175 140 -209 121 -43 268 36 319 170 27 73 31
246 6 267 -8 7 -15 18 -15 25 0 7 -17 24 -38 39 -76 52 -158 59 -237 20z m141
-115 c16 -17 18 -35 17 -104 -2 -70 -6 -90 -27 -123 -43 -69 -89 -88 -134 -56
-19 13 -22 24 -22 89 0 83 17 131 64 183 35 38 74 42 102 11z"/>
<path d="M5237 3163 c-17 -4 -18 -13 -13 -91 3 -48 8 -163 12 -257 3 -93 9
-173 13 -178 7 -7 82 -11 139 -8 12 0 25 9 28 19 5 18 18 48 49 117 30 66 65
154 79 198 3 9 10 17 16 17 6 0 10 -60 10 -169 0 -102 4 -172 10 -176 9 -5 76
-8 137 -6 16 1 28 14 43 49 13 26 26 54 31 62 5 8 12 22 15 30 3 8 10 22 15
30 5 8 12 22 15 30 3 8 23 51 44 95 21 44 50 106 65 138 15 32 33 61 41 64 32
12 12 32 -39 38 -95 12 -101 8 -150 -105 -8 -19 -29 -65 -46 -102 -17 -37 -31
-74 -31 -82 0 -13 -39 -67 -40 -56 0 3 -1 78 -3 168 -2 182 -2 182 -72 182
-80 0 -83 -3 -139 -135 -7 -16 -20 -46 -28 -65 -23 -51 -46 -112 -53 -139 -15
-53 -25 4 -27 164 l-3 170 -50 2 c-27 0 -58 -1 -68 -4z"/>
<path d="M70 3034 c-56 -37 -65 -76 -27 -112 20 -19 35 -22 98 -22 75 0 86 5
112 47 14 22 -5 63 -38 83 -40 25 -111 26 -145 4z"/>
<path d="M449 3034 c-48 -20 -62 -50 -41 -89 8 -17 20 -33 26 -37 6 -4 61 -8
122 -8 103 0 112 2 132 23 13 14 22 36 22 55 0 27 -6 35 -40 52 -48 25 -166
27 -221 4z"/>
<path d="M432 2520 c-45 -10 -54 -21 -54 -65 0 -57 17 -67 108 -66 68 0 81 3
97 22 34 42 7 107 -45 110 -13 1 -34 2 -48 4 -14 1 -40 -1 -58 -5z"/>
</g>
</svg>
